<svg xmlns="http://www.w3.org/2000/svg" viewBox="0 0 385.99 385.99"><g id="Calque_2" data-name="Calque 2"><g id="RoseVent"><g id="RoseVent-2" data-name="RoseVent"><g id="SmallRose"><polygon points="238.96 238.82 232.71 262.87 306.15 306.02 263 232.57 238.96 238.82"/><polygon points="147.05 146.92 153.3 122.87 79.86 79.72 123 153.17 147.05 146.92"/><polygon points="238.93 147.16 262.98 153.41 306.13 79.97 232.68 123.11 238.93 147.16"/><polygon points="147.03 239.07 122.98 232.82 79.83 306.26 153.28 263.12 147.03 239.07"/></g><path id="Rose" d="M386,193,232.8,153.19,193,0l-39.8,153.19L0,193,153.19,232.8,193,386,232.8,232.8ZM7.82,192,152.88,154.3,190.58,192ZM192,378.16,154.3,233.1,192,195.41ZM194,7.82l37.7,145.06L194,190.58ZM378.16,194,233.1,231.69,195.41,194Z"/><g id="Ring"><path d="M98,122.64l-10.59-18a137.13,137.13,0,0,0-30.33,65.92l21-5.47A117.62,117.62,0,0,1,98,122.64Z"/><path d="M165.06,78.1l5.47-21a137.29,137.29,0,0,0-65.75,30.18l18,10.6A117.62,117.62,0,0,1,165.06,78.1Z"/><path d="M263.37,98l18-10.59a137.13,137.13,0,0,0-65.95-30.35l5.47,21A117.55,117.55,0,0,1,263.37,98Z"/><path d="M288.1,122.77a117.67,117.67,0,0,1,19.79,42.29l21,5.47a137.26,137.26,0,0,0-30.23-65.8Z"/><path d="M98,263.32a117.57,117.57,0,0,1-19.86-42.4l-21-5.47a137.18,137.18,0,0,0,30.31,65.9Z"/><path d="M288.11,263.2l10.6,18a137.3,137.3,0,0,0,30.22-65.79l-21,5.47A117.68,117.68,0,0,1,288.11,263.2Z"/><path d="M220.92,307.89l-5.47,21a137.27,137.27,0,0,0,66-30.36l-18-10.59A117.78,117.78,0,0,1,220.92,307.89Z"/><path d="M122.82,288.13l-18,10.61a137.39,137.39,0,0,0,65.76,30.19l-5.47-21A117.63,117.63,0,0,1,122.82,288.13Z"/></g></g></g></g></svg>