<?xml version="1.0" standalone="no"?>
<!DOCTYPE svg PUBLIC "-//W3C//DTD SVG 20010904//EN"
 "http://www.w3.org/TR/2001/REC-SVG-20010904/DTD/svg10.dtd">
<svg version="1.0" xmlns="http://www.w3.org/2000/svg"
 width="700.000000pt" height="700.000000pt" viewBox="0 0 700.000000 700.000000"
 preserveAspectRatio="xMidYMid meet">
<metadata>
Created by potrace 1.14, written by Peter Selinger 2001-2017
</metadata>
<g transform="translate(0.000000,700.000000) scale(0.100000,-0.100000)"
fill="#000000" stroke="none">
<path d="M3061 5698 c-238 -717 -438 -1308 -445 -1314 -6 -7 -597 -207 -1313
-445 -717 -239 -1303 -436 -1303 -439 0 -3 586 -200 1302 -439 717 -238 1308
-438 1314 -445 7 -6 207 -597 445 -1314 239 -716 436 -1302 439 -1302 3 0 200
586 439 1303 238 716 438 1307 445 1313 6 7 597 207 1314 445 716 239 1302
436 1302 439 0 3 -586 200 -1302 439 -717 238 -1308 438 -1314 445 -7 6 -207
597 -445 1314 -239 716 -436 1302 -439 1302 -3 0 -200 -586 -439 -1302z m1016
-1614 c-6 -5 -567 -284 -572 -284 -3 0 -5 453 -4 1008 l1 1007 289 -864 c159
-476 288 -866 286 -867z m-1019 -289 c78 -157 142 -287 142 -290 0 -3 -453 -5
-1007 -4 l-1008 1 860 288 c473 159 862 289 865 289 3 1 69 -127 148 -284z
m1893 -586 c-476 -159 -866 -288 -867 -286 -5 6 -284 567 -284 572 0 3 453 5
1008 4 l1007 -1 -864 -289z m-1452 -1016 l-1 -1008 -289 864 c-159 476 -288
866 -286 867 7 6 563 283 570 283 4 1 7 -452 6 -1006z"/>
<path d="M1460 5534 c0 -7 482 -1057 490 -1066 3 -4 104 25 225 65 l219 73 73
219 c40 121 69 222 65 226 -8 7 -1058 489 -1066 489 -3 0 -6 -3 -6 -6z"/>
<path d="M4995 5295 c-291 -134 -531 -247 -532 -252 -1 -4 23 -105 55 -223
l58 -214 233 -74 c129 -40 237 -69 241 -65 8 9 490 1059 490 1067 0 3 -3 6 -7
6 -5 -1 -246 -111 -538 -245z"/>
<path d="M1932 2498 c-11 -24 -121 -265 -246 -537 -125 -271 -225 -495 -223
-498 5 -4 1054 473 1070 487 4 4 -18 106 -51 226 l-58 219 -230 72 c-126 40
-232 73 -236 73 -4 0 -16 -19 -26 -42z"/>
<path d="M4815 2481 l-210 -58 -73 -233 c-40 -128 -69 -237 -65 -240 16 -14
1065 -491 1070 -487 8 9 -485 1072 -499 1073 -7 1 -107 -24 -223 -55z"/>
</g>
</svg>
