<?xml version="1.0" ?><svg id="Layer_1" style="enable-background:new 0 0 91 91;" version="1.1" viewBox="0 0 91 91" xml:space="preserve" xmlns="http://www.w3.org/2000/svg" xmlns:xlink="http://www.w3.org/1999/xlink"><g><path d="M73.7,44.1l-13.6-4l8-14.2c0.4-0.7,0.3-1.5-0.3-2c-0.5-0.5-1.4-0.7-2-0.3l-14.2,8l-4-13.6c-0.2-0.5-0.6-0.9-1.2-0.9   s-1,0.4-1.2,0.9l-4,13.6l-14.2-8c-0.7-0.4-1.5-0.3-2,0.3c-0.5,0.5-0.6,1.4-0.3,2l8,14.2l-13.6,4c-0.5,0.2-0.9,0.6-0.9,1.2   s0.4,1,0.9,1.2l13.6,4l-8,14.2c-0.4,0.7-0.3,1.5,0.3,2c0.3,0.3,0.8,0.5,1.2,0.5c0.3,0,0.6-0.1,0.8-0.2l14.2-8l4,13.6   c0.2,0.5,0.6,0.9,1.2,0.9s1-0.4,1.2-0.9l4-13.6l14.2,8c0.3,0.1,0.5,0.2,0.8,0.2c0.4,0,0.9-0.2,1.2-0.5c0.5-0.5,0.6-1.4,0.3-2   l-8-14.2l13.6-4c0.5-0.2,0.9-0.6,0.9-1.2S74.2,44.2,73.7,44.1z M51.3,45.3c0,2.7-2.2,4.8-4.8,4.8c-2.7,0-4.8-2.2-4.8-4.8   s2.2-4.8,4.8-4.8C49.1,40.4,51.3,42.6,51.3,45.3z M62.2,29.5l-5.4,9.6l-3.2-0.9L52.6,35L62.2,29.5z M30.7,29.5l9.6,5.4l-0.9,3.2   l-3.2,0.9L30.7,29.5z M30.7,61l5.4-9.6l3.2,0.9l0.9,3.2L30.7,61z M62.2,61l-9.6-5.4l0.9-3.2l3.2-0.9L62.2,61z"/></g></svg>