<svg xmlns="http://www.w3.org/2000/svg" viewBox="0 0 356.42 356.42"><defs><style>.cls-1{fill:#fff;}.cls-2{fill:#846437;}</style></defs><g id="Calque_2" data-name="Calque 2"><g id="Calque_1-2" data-name="Calque 1"><polygon class="cls-1" points="178.21 207.94 92.11 264.3 148.48 178.21 92.11 92.11 178.21 148.48 264.3 92.11 207.94 178.21 264.3 264.3 178.21 207.94"/><path class="cls-2" d="M260.84,95.58l-53.38,81.53-.72,1.1.72,1.09,53.38,81.54L179.3,207.46l-1.09-.72-1.1.72L95.58,260.84,149,179.3l.72-1.09-.72-1.1L95.58,95.58,177.11,149l1.1.72,1.09-.72,81.54-53.38m6.93-6.93-89.56,58.64L88.65,88.65l58.64,89.56L88.65,267.77l89.56-58.64,89.56,58.64-58.64-89.56,58.64-89.56Z"/><polygon class="cls-2" points="148.29 208.13 4.9 178.21 148.29 148.29 178.21 4.9 208.13 148.29 351.52 178.21 208.13 208.13 178.21 351.52 148.29 208.13"/><path class="cls-2" d="M178.21,9.79,207,147.85l.27,1.28,1.28.27,138.06,28.81L208.57,207l-1.28.27-.27,1.28L178.21,346.63,149.4,208.57l-.27-1.28-1.28-.27L9.79,178.21,147.85,149.4l1.28-.27.27-1.28L178.21,9.79m0-9.79L147.44,147.44,0,178.21,147.44,209l30.77,147.44L209,209l147.44-30.77L209,147.44,178.21,0Z"/><circle class="cls-1" cx="178.21" cy="178.21" r="33.72"/><path class="cls-2" d="M178.21,145A33.22,33.22,0,1,1,145,178.21,33.25,33.25,0,0,1,178.21,145m0-1a34.22,34.22,0,1,0,34.22,34.22A34.22,34.22,0,0,0,178.21,144Z"/></g></g></svg>