<svg width="100" height="100" viewBox="0 0 100 100" fill="none" xmlns="http://www.w3.org/2000/svg">
<path d="M62.5 37.5L50 0L37.5 37.5L0 50L37.5 62.5L50 100L62.5 62.5L100 50L62.5 37.5ZM16.6667 50L41.6667 41.6667L45.8333 50H16.6667ZM50 83.3333L41.6667 58.3333L50 54.1667V83.3333ZM50 16.6667L58.3333 41.6667L50 45.8333V16.6667ZM58.3333 58.3333L54.1667 50H83.3333L58.3333 58.3333ZM36.25 72.0833L20.8333 79.1667L27.9167 63.75L34.5833 65.8333L36.25 72.0833ZM72.0833 63.75L79.1667 79.1667L63.75 72.0833L65.8333 65.4167L72.0833 63.75ZM27.9167 36.25L20.8333 20.8333L36.25 27.9167L34.1667 34.1667L27.9167 36.25ZM63.75 27.9167L79.1667 20.8333L72.0833 36.25L65.4167 34.1667L63.75 27.9167Z" fill="#996A0F"/>
</svg>
