<svg width="84" height="84" viewBox="0 0 84 84" fill="none" xmlns="http://www.w3.org/2000/svg">
<path d="M30.7504 41.499L30.8052 41.3422L30.7553 41.1837L26.2498 26.8896L61.4534 41.8341L25.7849 55.7015L30.7504 41.499ZM28.3897 52.419L28.0352 53.4412L29.0435 53.0489L56.8418 42.2312L57.9894 41.7846L56.8553 41.3047L29.3843 29.6808L28.388 29.2592L28.7125 30.2913L32.2086 41.4085L28.3897 52.419ZM62.2616 21.4237C67.6524 26.9741 70.5542 34.2165 70.4415 41.9647C70.2832 49.6705 67.2145 56.8723 61.6659 62.2614C56.1155 67.6522 48.8731 70.554 41.1249 70.4414C33.4191 70.283 26.2172 67.2144 20.8282 61.6657C15.4373 56.1153 12.5355 48.8729 12.6482 41.1247C12.8066 33.4189 15.8753 26.2171 21.4239 20.828C26.9747 15.4369 34.2176 12.535 41.9664 12.6481C49.7152 12.7611 56.8704 15.8729 62.2616 21.4237ZM13.9667 41.1424C13.8592 48.5083 16.639 55.4934 21.7573 60.7633C26.8756 66.0331 33.7767 69.0155 41.1426 69.1229C56.3488 69.3447 68.9012 57.1533 69.1231 41.947C69.2305 34.5811 66.4507 27.596 61.3324 22.3262C56.2141 17.0563 49.313 14.074 41.9471 13.9665C26.7409 13.7447 14.1885 25.9362 13.9667 41.1424Z" fill="white" stroke="white"/>
</svg>
