<svg width="85" height="85" viewBox="0 0 85 85" fill="none" xmlns="http://www.w3.org/2000/svg">
<path d="M53.3389 42.433L53.2864 42.5906L53.3386 42.7484L58.0521 56.9752L22.6343 42.5457L58.0967 28.1596L53.3389 42.433ZM55.54 31.4797L55.8796 30.4525L54.8772 30.8595L27.2396 42.0815L26.0987 42.5447L27.2396 43.008L54.8772 54.23L55.8796 54.637L55.54 53.6098L51.8822 42.5447L55.54 31.4797ZM22.1239 62.9657C16.6527 57.4946 13.6456 50.2953 13.6452 42.5463C13.6911 34.839 16.6545 27.5931 22.1239 22.1237C27.5951 16.6525 34.7943 13.6454 42.5433 13.645C50.2507 13.6909 57.4965 16.6543 62.9659 22.1237C68.4372 27.5949 71.4443 34.7942 71.4447 42.5433C71.3987 50.2505 68.4354 57.4963 62.9659 62.9657C57.4944 68.4373 50.2945 71.4445 42.5449 71.4445C34.7953 71.4445 27.5955 68.4373 22.1239 62.9657ZM70.1261 42.5447C70.1261 35.1781 67.2447 28.2342 62.05 23.0396C56.8554 17.845 49.9116 14.9636 42.5449 14.9636C27.3371 14.9636 14.9638 27.3369 14.9638 42.5447C14.9638 49.9114 17.8452 56.8552 23.0398 62.0498C28.2344 67.2445 35.1783 70.1259 42.5449 70.1259C57.7528 70.1259 70.1261 57.7526 70.1261 42.5447Z" fill="white" stroke="white"/>
</svg>
