<svg width="126" height="64" viewBox="0 0 126 64" fill="none" xmlns="http://www.w3.org/2000/svg">
<path d="M39.2822 31.1514L39.2296 31.309L39.2819 31.4668L42.7454 41.9209L16.616 31.2756L42.7786 20.6621L39.2822 31.1514ZM41.1737 22.9846L41.5132 21.9574L40.5108 22.3644L19.7076 30.8113L18.5667 31.2746L19.7076 31.7379L40.5108 40.1848L41.5132 40.5918L41.1737 39.5646L38.4332 31.2746L41.1737 22.9846ZM15.9909 46.5583C11.8957 42.4631 9.64537 37.0755 9.64509 31.2757C9.6797 25.5065 11.8976 20.0841 15.9909 15.9909C20.0861 11.8956 25.4738 9.64532 31.2735 9.64503C37.0427 9.67963 42.4651 11.8976 46.5584 15.9909C50.6536 20.086 52.9038 25.4735 52.9042 31.2731C52.8697 37.0425 50.6518 42.465 46.5584 46.5583C42.4629 50.6538 37.0748 52.9042 31.2747 52.9042C25.4745 52.9042 20.0864 50.6538 15.9909 46.5583ZM52.159 31.2746C52.159 25.6968 49.9771 20.4387 46.0438 16.5054C42.1106 12.5722 36.8524 10.3903 31.2747 10.3903C19.7592 10.3903 10.3903 19.7591 10.3903 31.2746C10.3903 36.8524 12.5722 42.1105 16.5055 46.0438C20.4387 49.977 25.6969 52.1589 31.2747 52.1589C42.7901 52.1589 52.159 42.79 52.159 31.2746Z" fill="#101C3D" stroke="#11254A"/>
<path d="M85.8162 32.3978L85.8688 32.2402L85.8165 32.0824L82.353 21.6283L108.482 32.2736L82.3198 42.887L85.8162 32.3978ZM83.9247 40.5646L83.5852 41.5918L84.5876 41.1848L105.391 32.7379L106.532 32.2746L105.391 31.8113L84.5876 23.3644L83.5852 22.9574L83.9247 23.9846L86.6652 32.2746L83.9247 40.5646ZM109.107 16.9909C113.203 21.0861 115.453 26.4737 115.453 32.2735C115.419 38.0427 113.201 43.4651 109.107 47.5583C105.012 51.6536 99.6246 53.9039 93.8249 53.9042C88.0557 53.8696 82.6333 51.6516 78.54 47.5583C74.4448 43.4632 72.1945 38.0757 72.1942 32.2761C72.2287 26.5067 74.4466 21.0842 78.54 16.9909C82.6355 12.8953 88.0235 10.645 93.8237 10.645C99.6239 10.645 105.012 12.8953 109.107 16.9909ZM72.9394 32.2746C72.9394 37.8524 75.1213 43.1105 79.0545 47.0438C82.9878 50.977 88.2459 53.1589 93.8237 53.1589C105.339 53.1589 114.708 43.79 114.708 32.2746C114.708 26.6968 112.526 21.4387 108.593 17.5054C104.66 13.5722 99.4015 11.3903 93.8237 11.3903C82.3083 11.3903 72.9394 20.7591 72.9394 32.2746Z" fill="#101C3D" stroke="#11254A"/>
</svg>
