<svg width="57" height="57" viewBox="0 0 57 57" fill="none" xmlns="http://www.w3.org/2000/svg">
<path d="M28.2115 0L23.5635 17.1812C23.5636 17.1889 23.5636 17.1965 23.5635 17.2042C23.5598 17.2508 23.552 17.2969 23.5403 17.3422L22.4766 21.2291L28.2116 26.9561L33.9697 21.2291L32.9059 17.3191C32.8964 17.289 32.8887 17.2582 32.8828 17.2271L28.2115 0.000331299V0ZM11.7695 11.7532L17.5739 21.7584L20.3258 21.0224L20.9039 20.8614L21.8058 17.5264L11.77 11.7534L11.7695 11.7532ZM44.6536 11.7992L34.6407 17.5261L35.5426 20.8611L38.8726 21.7582L44.6538 11.7993L44.6536 11.7992ZM21.2977 22.4256L17.3896 23.4836C17.3441 23.4952 17.2977 23.5029 17.2509 23.5066L0 28.1066L21.2979 33.8106L24.1885 30.9586L27.056 28.1066L21.2979 22.4255L21.2977 22.4256ZM35.1268 22.4256L29.3688 28.1066L35.1268 33.8106L56.4477 28.1066L39.1732 23.5066C39.1341 23.5017 39.0955 23.494 39.0575 23.4836L35.1263 22.4256L35.1268 22.4256ZM28.2356 29.2336L22.4775 34.9605L23.5413 38.8475C23.5529 38.8927 23.5607 38.9389 23.5644 38.9855L28.2125 56.2123L32.8837 39.0547C32.886 39.0004 32.8937 38.9464 32.9068 38.8937L33.9474 34.9837L28.2355 29.2797V29.2337L28.2356 29.2336ZM17.5751 34.5005L11.8171 44.4822L21.8071 38.7091L20.9051 35.3971L17.5751 34.5001V34.5005ZM38.8731 34.5005L35.5431 35.3976L34.8725 37.8356L34.6412 38.7096L44.6542 44.4826L38.8729 34.501L38.8731 34.5005Z" fill="#463535"/>
</svg>
