<svg width="100" height="100" viewBox="0 0 100 100" fill="none" xmlns="http://www.w3.org/2000/svg">
<g clip-path="url(#clip0)">
<path d="M87.5 31.25C89.1576 31.25 90.7473 31.9085 91.9194 33.0806C93.0915 34.2527 93.75 35.8424 93.75 37.5V68.75C93.75 70.4076 93.0915 71.9973 91.9194 73.1694C90.7473 74.3415 89.1576 75 87.5 75H12.5C10.8424 75 9.25268 74.3415 8.08058 73.1694C6.90848 71.9973 6.25 70.4076 6.25 68.75V37.5C6.25 35.8424 6.90848 34.2527 8.08058 33.0806C9.25268 31.9085 10.8424 31.25 12.5 31.25H87.5ZM12.5 25C9.18479 25 6.00537 26.317 3.66117 28.6612C1.31696 31.0054 0 34.1848 0 37.5L0 68.75C0 72.0652 1.31696 75.2446 3.66117 77.5888C6.00537 79.933 9.18479 81.25 12.5 81.25H87.5C90.8152 81.25 93.9946 79.933 96.3388 77.5888C98.683 75.2446 100 72.0652 100 68.75V37.5C100 34.1848 98.683 31.0054 96.3388 28.6612C93.9946 26.317 90.8152 25 87.5 25H12.5Z" fill="#101C3D"/>
<path d="M81.25 64.0625C81.25 63.6481 81.4146 63.2507 81.7076 62.9576C82.0007 62.6646 82.3981 62.5 82.8125 62.5H85.9375C86.3519 62.5 86.7493 62.6646 87.0424 62.9576C87.3354 63.2507 87.5 63.6481 87.5 64.0625V67.1875C87.5 67.6019 87.3354 67.9993 87.0424 68.2924C86.7493 68.5854 86.3519 68.75 85.9375 68.75H82.8125C82.3981 68.75 82.0007 68.5854 81.7076 68.2924C81.4146 67.9993 81.25 67.6019 81.25 67.1875V64.0625ZM81.25 51.5625C81.25 51.1481 81.4146 50.7507 81.7076 50.4576C82.0007 50.1646 82.3981 50 82.8125 50H85.9375C86.3519 50 86.7493 50.1646 87.0424 50.4576C87.3354 50.7507 87.5 51.1481 87.5 51.5625V54.6875C87.5 55.1019 87.3354 55.4993 87.0424 55.7924C86.7493 56.0854 86.3519 56.25 85.9375 56.25H82.8125C82.3981 56.25 82.0007 56.0854 81.7076 55.7924C81.4146 55.4993 81.25 55.1019 81.25 54.6875V51.5625ZM50 51.5625C50 51.1481 50.1646 50.7507 50.4576 50.4576C50.7507 50.1646 51.1481 50 51.5625 50H54.6875C55.1019 50 55.4993 50.1646 55.7924 50.4576C56.0854 50.7507 56.25 51.1481 56.25 51.5625V54.6875C56.25 55.1019 56.0854 55.4993 55.7924 55.7924C55.4993 56.0854 55.1019 56.25 54.6875 56.25H51.5625C51.1481 56.25 50.7507 56.0854 50.4576 55.7924C50.1646 55.4993 50 55.1019 50 54.6875V51.5625ZM62.5 51.5625C62.5 51.1481 62.6646 50.7507 62.9576 50.4576C63.2507 50.1646 63.6481 50 64.0625 50H73.4375C73.8519 50 74.2493 50.1646 74.5424 50.4576C74.8354 50.7507 75 51.1481 75 51.5625V54.6875C75 55.1019 74.8354 55.4993 74.5424 55.7924C74.2493 56.0854 73.8519 56.25 73.4375 56.25H64.0625C63.6481 56.25 63.2507 56.0854 62.9576 55.7924C62.6646 55.4993 62.5 55.1019 62.5 54.6875V51.5625ZM68.75 64.0625C68.75 63.6481 68.9146 63.2507 69.2076 62.9576C69.5007 62.6646 69.8981 62.5 70.3125 62.5H73.4375C73.8519 62.5 74.2493 62.6646 74.5424 62.9576C74.8354 63.2507 75 63.6481 75 64.0625V67.1875C75 67.6019 74.8354 67.9993 74.5424 68.2924C74.2493 68.5854 73.8519 68.75 73.4375 68.75H70.3125C69.8981 68.75 69.5007 68.5854 69.2076 68.2924C68.9146 67.9993 68.75 67.6019 68.75 67.1875V64.0625ZM37.5 51.5625C37.5 51.1481 37.6646 50.7507 37.9576 50.4576C38.2507 50.1646 38.6481 50 39.0625 50H42.1875C42.6019 50 42.9993 50.1646 43.2924 50.4576C43.5854 50.7507 43.75 51.1481 43.75 51.5625V54.6875C43.75 55.1019 43.5854 55.4993 43.2924 55.7924C42.9993 56.0854 42.6019 56.25 42.1875 56.25H39.0625C38.6481 56.25 38.2507 56.0854 37.9576 55.7924C37.6646 55.4993 37.5 55.1019 37.5 54.6875V51.5625ZM25 51.5625C25 51.1481 25.1646 50.7507 25.4576 50.4576C25.7507 50.1646 26.1481 50 26.5625 50H29.6875C30.1019 50 30.4993 50.1646 30.7924 50.4576C31.0854 50.7507 31.25 51.1481 31.25 51.5625V54.6875C31.25 55.1019 31.0854 55.4993 30.7924 55.7924C30.4993 56.0854 30.1019 56.25 29.6875 56.25H26.5625C26.1481 56.25 25.7507 56.0854 25.4576 55.7924C25.1646 55.4993 25 55.1019 25 54.6875V51.5625ZM12.5 51.5625C12.5 51.1481 12.6646 50.7507 12.9576 50.4576C13.2507 50.1646 13.6481 50 14.0625 50H17.1875C17.6019 50 17.9993 50.1646 18.2924 50.4576C18.5854 50.7507 18.75 51.1481 18.75 51.5625V54.6875C18.75 55.1019 18.5854 55.4993 18.2924 55.7924C17.9993 56.0854 17.6019 56.25 17.1875 56.25H14.0625C13.6481 56.25 13.2507 56.0854 12.9576 55.7924C12.6646 55.4993 12.5 55.1019 12.5 54.6875V51.5625ZM81.25 39.0625C81.25 38.6481 81.4146 38.2507 81.7076 37.9576C82.0007 37.6646 82.3981 37.5 82.8125 37.5H85.9375C86.3519 37.5 86.7493 37.6646 87.0424 37.9576C87.3354 38.2507 87.5 38.6481 87.5 39.0625V42.1875C87.5 42.6019 87.3354 42.9993 87.0424 43.2924C86.7493 43.5854 86.3519 43.75 85.9375 43.75H82.8125C82.3981 43.75 82.0007 43.5854 81.7076 43.2924C81.4146 42.9993 81.25 42.6019 81.25 42.1875V39.0625ZM68.75 39.0625C68.75 38.6481 68.9146 38.2507 69.2076 37.9576C69.5007 37.6646 69.8981 37.5 70.3125 37.5H73.4375C73.8519 37.5 74.2493 37.6646 74.5424 37.9576C74.8354 38.2507 75 38.6481 75 39.0625V42.1875C75 42.6019 74.8354 42.9993 74.5424 43.2924C74.2493 43.5854 73.8519 43.75 73.4375 43.75H70.3125C69.8981 43.75 69.5007 43.5854 69.2076 43.2924C68.9146 42.9993 68.75 42.6019 68.75 42.1875V39.0625ZM56.25 39.0625C56.25 38.6481 56.4146 38.2507 56.7076 37.9576C57.0007 37.6646 57.3981 37.5 57.8125 37.5H60.9375C61.3519 37.5 61.7493 37.6646 62.0424 37.9576C62.3354 38.2507 62.5 38.6481 62.5 39.0625V42.1875C62.5 42.6019 62.3354 42.9993 62.0424 43.2924C61.7493 43.5854 61.3519 43.75 60.9375 43.75H57.8125C57.3981 43.75 57.0007 43.5854 56.7076 43.2924C56.4146 42.9993 56.25 42.6019 56.25 42.1875V39.0625ZM43.75 39.0625C43.75 38.6481 43.9146 38.2507 44.2076 37.9576C44.5007 37.6646 44.8981 37.5 45.3125 37.5H48.4375C48.8519 37.5 49.2493 37.6646 49.5424 37.9576C49.8354 38.2507 50 38.6481 50 39.0625V42.1875C50 42.6019 49.8354 42.9993 49.5424 43.2924C49.2493 43.5854 48.8519 43.75 48.4375 43.75H45.3125C44.8981 43.75 44.5007 43.5854 44.2076 43.2924C43.9146 42.9993 43.75 42.6019 43.75 42.1875V39.0625ZM31.25 39.0625C31.25 38.6481 31.4146 38.2507 31.7076 37.9576C32.0007 37.6646 32.3981 37.5 32.8125 37.5H35.9375C36.3519 37.5 36.7493 37.6646 37.0424 37.9576C37.3354 38.2507 37.5 38.6481 37.5 39.0625V42.1875C37.5 42.6019 37.3354 42.9993 37.0424 43.2924C36.7493 43.5854 36.3519 43.75 35.9375 43.75H32.8125C32.3981 43.75 32.0007 43.5854 31.7076 43.2924C31.4146 42.9993 31.25 42.6019 31.25 42.1875V39.0625ZM12.5 39.0625C12.5 38.6481 12.6646 38.2507 12.9576 37.9576C13.2507 37.6646 13.6481 37.5 14.0625 37.5H23.4375C23.8519 37.5 24.2493 37.6646 24.5424 37.9576C24.8354 38.2507 25 38.6481 25 39.0625V42.1875C25 42.6019 24.8354 42.9993 24.5424 43.2924C24.2493 43.5854 23.8519 43.75 23.4375 43.75H14.0625C13.6481 43.75 13.2507 43.5854 12.9576 43.2924C12.6646 42.9993 12.5 42.6019 12.5 42.1875V39.0625ZM12.5 64.0625C12.5 63.6481 12.6646 63.2507 12.9576 62.9576C13.2507 62.6646 13.6481 62.5 14.0625 62.5H17.1875C17.6019 62.5 17.9993 62.6646 18.2924 62.9576C18.5854 63.2507 18.75 63.6481 18.75 64.0625V67.1875C18.75 67.6019 18.5854 67.9993 18.2924 68.2924C17.9993 68.5854 17.6019 68.75 17.1875 68.75H14.0625C13.6481 68.75 13.2507 68.5854 12.9576 68.2924C12.6646 67.9993 12.5 67.6019 12.5 67.1875V64.0625ZM25 64.0625C25 63.6481 25.1646 63.2507 25.4576 62.9576C25.7507 62.6646 26.1481 62.5 26.5625 62.5H60.9375C61.3519 62.5 61.7493 62.6646 62.0424 62.9576C62.3354 63.2507 62.5 63.6481 62.5 64.0625V67.1875C62.5 67.6019 62.3354 67.9993 62.0424 68.2924C61.7493 68.5854 61.3519 68.75 60.9375 68.75H26.5625C26.1481 68.75 25.7507 68.5854 25.4576 68.2924C25.1646 67.9993 25 67.6019 25 67.1875V64.0625Z" fill="#101C3D"/>
</g>
<defs>
<clipPath id="clip0">
<rect width="100" height="100" fill="white"/>
</clipPath>
</defs>
</svg>
