<svg id="rose_vent" xmlns="http://www.w3.org/2000/svg" viewBox="0 0 546.1 676.3">
    <circle id="centre" cx="270.5" cy="373.6" r="42" fill="#101c3d" stroke="#070706" stroke-miterlimit="10"/>
    <path id="br_obl_haut_gch" d="M233.2,343.4a50.5,50.5,0,0,1,9.2-8.7l-15.2-50.3L105.7,202.3l80,125.2Z" fill="#101c3d"
          stroke="#101c3d" stroke-miterlimit="10"/>
    <path id="br_vert_haut"
          d="M256.5,86.6c1-1,1-6.2,5.5-6.6s4.5,9.6,4.5,9.6-1,2-4,1-.5,7.6-.5,7.6,8.5,3.8,0,8.6a42.2,42.2,0,0,0-7.5-1.2s-3,3,1,10c5,1,6.3,2,11.7,0s3.3,1.1,3.3,1.1l-3,3.9s-8,3-2,7a3.5,3.5,0,0,1,1,4l3,3-1.5.8,2.8,11.9L240.1,277.8,263.9,326a48.7,48.7,0,0,1,6.6-.4,53,53,0,0,1,5.7.3l25.4-47.6L275.6,146l2.4-10.6-1.5-.8,3-3a3.5,3.5,0,0,1,1-4c6-4-2-7-2-7l-3-3.9s-2-3.1,3.4-1.1,6.6,1,11.6,0c4-7,1-10,1-10a42.2,42.2,0,0,0-7.5,1.2c-8.5-4.8,0-8.6,0-8.6s2.5-8.6-.5-7.6-4-1-4-1,0-10,4.5-9.6,4.5,5.6,5.5,6.6,5-2,5-2,3-10-3-15S278,71.5,278,71.5l-1.5-3.9,11-17-12-46c-1.6-5.5-3.3-5.5-5,0l-12,46,11,17L268,71.5s-7.5-6.9-13.5-1.9-3,15-3,15S255.5,87.6,256.5,86.6Z"
          fill="#101c3d" stroke="#070706" stroke-miterlimit="10"/>
    <path id="br_obl_haut_drt" d="M297.8,334a47.1,47.1,0,0,1,9.8,9.1l49.1-15,77.8-116.5L312.2,291.4Z" fill="#101c3d"
          stroke="#101c3d" stroke-miterlimit="10"/>
    <path id="br_hrz_gch"
          d="M222.8,378.8c-.1-1.7-.3-3.5-.3-5.2a47.5,47.5,0,0,1,1-9.4l-38.2-20.5L37.5,369.3a9.9,9.9,0,0,0-10-9.7,9.8,9.8,0,0,0-9,5.8h0L1.9,369.6l16.9,4.8h0a10,10,0,0,0,8.7,5.2,10.2,10.2,0,0,0,10-8.8l139.1,32.7Z"
          fill="#101c3d" stroke="#070706" stroke-miterlimit="10"/>
    <path id="br_hrz_drt"
          d="M527.3,366.7a10.1,10.1,0,0,0-18.8,4.9c0,.2.1.4.1.6L358.8,343.1l-41.3,20.5a47.1,47.1,0,0,1,1,10,41.8,41.8,0,0,1-.2,5l44.3,23,146.1-28.7a9.9,9.9,0,0,0,9.8,8.7,10.1,10.1,0,0,0,8.3-4.4l17.5-5.6Z"
          fill="#101c3d" stroke="#070706" stroke-miterlimit="10"/>
    <path id="br_obl_bas_gch" d="M241.3,411.6a48.8,48.8,0,0,1-10.7-11.5l-37.9,12.8L105.5,539.6l120.2-79.7Z"
          fill="#101c3d" stroke="#070706" stroke-miterlimit="10"/>
    <path id="br_obl_bas_drt" d="M310.7,399.8a47.4,47.4,0,0,1-11.2,12L314,455.2l120.5,82.4L356.9,414.9Z" fill="#101c3d"
          stroke="#101c3d" stroke-miterlimit="10"/>
    <path id="br_vert_bas"
          d="M295.5,634.6s-1-1-3,2l-1-1s-1-1-2,1v3h-2a3.7,3.7,0,0,0-3-2,3.5,3.5,0,0,0-1-2,7.8,7.8,0,0,1-1.5-5.7c.5-3.3,2.5-.3,2.5-.3s3,0,3-2v-5s0-1-4-1-1-4,0-4,3,2,3,2h4s8-4-1-13h-2.6s-.4-2-2.4,0a3.5,3.5,0,0,1-4,1v-1.9s2.1-2.1-.9-4.1-2.8-1.6-2.8-1.6h-2.6l27.8-135.7-22.8-43.5a48.2,48.2,0,0,1-8.6.8,42.1,42.1,0,0,1-8.7-.9l-20.7,40.2L270.9,600h-3.2l-3,2c-3,2-.8,4.1-.8,4.1l-.2,1.9a3.5,3.5,0,0,1-4-1c-2-2-2.4,0-2.4,0h-2.6c-9,9-1,13-1,13h4s2-2,3-2,4,4,0,4-4,1-4,1v5c0,2,3,2,3,2s2-3,2.5.3a7.5,7.5,0,0,1-1.5,5.7,3.5,3.5,0,0,0-1,2,3.7,3.7,0,0,0-3,2h-2v-3c-1-2-2-1-2-1l-1,1c-2-3-3-2-3-2s-5-1-5,10,14,8,14,8l7-5h2l-7.2,10.6,7.6,12.6c3.9,6.1,7.2,6,10.2,0l7.2-12.6-7-11h2l7,5s14,3,14-8S295.5,634.6,295.5,634.6Z"
          fill="#101c3d" stroke="#070706" stroke-miterlimit="10"/>
    <path id="rose_avant"
          d="M310.7,399.8l130.8,42.8-123.2-64a41.8,41.8,0,0,0,.2-5,47.1,47.1,0,0,0-1-10l123-61L307.6,343.1a47.1,47.1,0,0,0-9.8-9.1l44.7-132.4L276.2,325.9a53,53,0,0,0-5.7-.3,48.7,48.7,0,0,0-6.6.4L201.5,199.6l40.9,135.1a50.5,50.5,0,0,0-9.2,8.7L102.5,299.6l121,64.6a47.5,47.5,0,0,0-1,9.4c0,1.7.2,3.5.3,5.2L101.5,443.6l129.1-43.5a48.8,48.8,0,0,0,10.7,11.5l-42.8,132,63.3-122.9a42.1,42.1,0,0,0,8.7.9,48.2,48.2,0,0,0,8.6-.8l64.4,122.8-44-131.8A47.4,47.4,0,0,0,310.7,399.8Zm-40.2,15.8a42,42,0,1,1,42-42A42.1,42.1,0,0,1,270.5,415.6Z"
          fill="aliceblue" stroke="#020202" stroke-miterlimit="10"/>
</svg>
