<svg width="380" height="96" viewBox="0 0 380 96" fill="none" xmlns="http://www.w3.org/2000/svg">
<rect x="232.5" y="60.5" width="46" height="34" stroke="#112143" stroke-width="3"/>
<rect x="332.5" y="60.5" width="46" height="34" stroke="#112143" stroke-width="3"/>
<rect x="138.5" y="60.5" width="46" height="34" stroke="#112143" stroke-width="3"/>
<rect x="138.5" y="1.5" width="46" height="34" stroke="#112143" stroke-width="3"/>
<rect x="1.5" y="60.5" width="89" height="34" stroke="#112143" stroke-width="3"/>
<rect x="1.5" y="1.5" width="89" height="34" stroke="#112143" stroke-width="3"/>
<path d="M359.068 78.3486H353.698V84H352.011V71.2031H359.938V72.5918H353.698V76.9688H359.068V78.3486Z" fill="black"/>
<path d="M18.4902 71.2031L22.6738 81.6445L26.8574 71.2031H29.0459V84H27.3584V79.0166L27.5166 73.6377L23.3154 84H22.0234L17.8311 73.6641L17.998 79.0166V84H16.3105V71.2031H18.4902ZM37.6416 84C37.5479 83.8125 37.4717 83.4785 37.4131 82.998C36.6572 83.7832 35.7549 84.1758 34.7061 84.1758C33.7686 84.1758 32.998 83.9121 32.3945 83.3848C31.7969 82.8516 31.498 82.1777 31.498 81.3633C31.498 80.373 31.873 79.6055 32.623 79.0605C33.3789 78.5098 34.4395 78.2344 35.8047 78.2344H37.3867V77.4873C37.3867 76.9189 37.2168 76.4678 36.877 76.1338C36.5371 75.7939 36.0361 75.624 35.374 75.624C34.7939 75.624 34.3076 75.7705 33.915 76.0635C33.5225 76.3564 33.3262 76.7109 33.3262 77.127H31.6914C31.6914 76.6523 31.8584 76.1953 32.1924 75.7559C32.5322 75.3105 32.9893 74.959 33.5635 74.7012C34.1436 74.4434 34.7793 74.3145 35.4707 74.3145C36.5664 74.3145 37.4248 74.5898 38.0459 75.1406C38.667 75.6855 38.9893 76.4385 39.0127 77.3994V81.7764C39.0127 82.6494 39.124 83.3438 39.3467 83.8594V84H37.6416ZM34.9434 82.7607C35.4531 82.7607 35.9365 82.6289 36.3936 82.3652C36.8506 82.1016 37.1816 81.7588 37.3867 81.3369V79.3857H36.1123C34.1201 79.3857 33.124 79.9688 33.124 81.1348C33.124 81.6445 33.2939 82.043 33.6338 82.3301C33.9736 82.6172 34.4102 82.7607 34.9434 82.7607ZM45.376 82.8486C45.9561 82.8486 46.4629 82.6729 46.8965 82.3213C47.3301 81.9697 47.5703 81.5303 47.6172 81.0029H49.1553C49.126 81.5479 48.9385 82.0664 48.5928 82.5586C48.2471 83.0508 47.7842 83.4434 47.2041 83.7363C46.6299 84.0293 46.0205 84.1758 45.376 84.1758C44.0811 84.1758 43.0498 83.7451 42.2822 82.8838C41.5205 82.0166 41.1396 80.833 41.1396 79.333V79.0605C41.1396 78.1348 41.3096 77.3115 41.6494 76.5908C41.9893 75.8701 42.4756 75.3105 43.1084 74.9121C43.7471 74.5137 44.5 74.3145 45.3672 74.3145C46.4336 74.3145 47.3184 74.6338 48.0215 75.2725C48.7305 75.9111 49.1084 76.7402 49.1553 77.7598H47.6172C47.5703 77.1445 47.3359 76.6406 46.9141 76.248C46.498 75.8496 45.9824 75.6504 45.3672 75.6504C44.541 75.6504 43.8994 75.9492 43.4424 76.5469C42.9912 77.1387 42.7656 77.9971 42.7656 79.1221V79.4297C42.7656 80.5254 42.9912 81.3691 43.4424 81.9609C43.8936 82.5527 44.5381 82.8486 45.376 82.8486ZM61.082 78.0146C61.082 79.2686 60.8711 80.3643 60.4492 81.3018C60.0273 82.2334 59.4297 82.9453 58.6562 83.4375C57.8828 83.9297 56.9805 84.1758 55.9492 84.1758C54.9414 84.1758 54.0479 83.9297 53.2686 83.4375C52.4893 82.9395 51.8828 82.2334 51.4492 81.3193C51.0215 80.3994 50.8018 79.3359 50.79 78.1289V77.2061C50.79 75.9756 51.0039 74.8887 51.4316 73.9453C51.8594 73.002 52.4629 72.2812 53.2422 71.7832C54.0273 71.2793 54.9238 71.0273 55.9316 71.0273C56.957 71.0273 57.8594 71.2764 58.6387 71.7744C59.4238 72.2666 60.0273 72.9844 60.4492 73.9277C60.8711 74.8652 61.082 75.958 61.082 77.2061V78.0146ZM59.4033 77.1885C59.4033 75.6709 59.0986 74.5078 58.4893 73.6992C57.8799 72.8848 57.0273 72.4775 55.9316 72.4775C54.8652 72.4775 54.0244 72.8848 53.4092 73.6992C52.7998 74.5078 52.4863 75.6328 52.4688 77.0742V78.0146C52.4688 79.4854 52.7764 80.6426 53.3916 81.4863C54.0127 82.3242 54.8652 82.7432 55.9492 82.7432C57.0391 82.7432 57.8828 82.3477 58.4805 81.5566C59.0781 80.7598 59.3857 79.6201 59.4033 78.1377V77.1885ZM67.3838 78.2959C65.9365 77.8799 64.8818 77.3701 64.2197 76.7666C63.5635 76.1572 63.2354 75.4072 63.2354 74.5166C63.2354 73.5088 63.6367 72.6768 64.4395 72.0205C65.248 71.3584 66.2969 71.0273 67.5859 71.0273C68.4648 71.0273 69.2471 71.1973 69.9326 71.5371C70.624 71.877 71.1572 72.3457 71.5322 72.9434C71.9131 73.541 72.1035 74.1943 72.1035 74.9033H70.4072C70.4072 74.1299 70.1611 73.5234 69.6689 73.084C69.1768 72.6387 68.4824 72.416 67.5859 72.416C66.7539 72.416 66.1035 72.6006 65.6348 72.9697C65.1719 73.333 64.9404 73.8398 64.9404 74.4902C64.9404 75.0117 65.1602 75.4541 65.5996 75.8174C66.0449 76.1748 66.7979 76.5029 67.8584 76.8018C68.9248 77.1006 69.7568 77.4316 70.3545 77.7949C70.958 78.1523 71.4033 78.5713 71.6904 79.0518C71.9834 79.5322 72.1299 80.0977 72.1299 80.748C72.1299 81.7852 71.7256 82.6172 70.917 83.2441C70.1084 83.8652 69.0273 84.1758 67.6738 84.1758C66.7949 84.1758 65.9746 84.0088 65.2129 83.6748C64.4512 83.335 63.8623 82.8721 63.4463 82.2861C63.0361 81.7002 62.8311 81.0352 62.8311 80.291H64.5273C64.5273 81.0645 64.8115 81.6768 65.3799 82.1279C65.9541 82.5732 66.7188 82.7959 67.6738 82.7959C68.5645 82.7959 69.2471 82.6143 69.7217 82.251C70.1963 81.8877 70.4336 81.3926 70.4336 80.7656C70.4336 80.1387 70.2139 79.6553 69.7744 79.3154C69.335 78.9697 68.5381 78.6299 67.3838 78.2959ZM73.9932 83.1475C73.9932 82.8662 74.0752 82.6318 74.2393 82.4443C74.4092 82.2568 74.6611 82.1631 74.9951 82.1631C75.3291 82.1631 75.5811 82.2568 75.751 82.4443C75.9268 82.6318 76.0146 82.8662 76.0146 83.1475C76.0146 83.417 75.9268 83.6426 75.751 83.8242C75.5811 84.0059 75.3291 84.0967 74.9951 84.0967C74.6611 84.0967 74.4092 84.0059 74.2393 83.8242C74.0752 83.6426 73.9932 83.417 73.9932 83.1475ZM74.002 75.3867C74.002 75.1055 74.084 74.8711 74.248 74.6836C74.418 74.4961 74.6699 74.4023 75.0039 74.4023C75.3379 74.4023 75.5898 74.4961 75.7598 74.6836C75.9355 74.8711 76.0234 75.1055 76.0234 75.3867C76.0234 75.6562 75.9355 75.8818 75.7598 76.0635C75.5898 76.2451 75.3379 76.3359 75.0039 76.3359C74.6699 76.3359 74.418 76.2451 74.248 76.0635C74.084 75.8818 74.002 75.6562 74.002 75.3867Z" fill="black"/>
<path d="M11.3008 20.9658L11.5469 22.6533L11.9072 21.1328L14.4385 12.2031H15.8623L18.332 21.1328L18.6836 22.6797L18.9561 20.957L20.9424 12.2031H22.6387L19.5361 25H17.998L15.3613 15.6748L15.1592 14.6992L14.957 15.6748L12.2236 25H10.6855L7.5918 12.2031H9.2793L11.3008 20.9658ZM26.0312 25H24.4053V15.4902H26.0312V25ZM24.2734 12.9678C24.2734 12.7041 24.3525 12.4814 24.5107 12.2998C24.6748 12.1182 24.915 12.0273 25.2314 12.0273C25.5479 12.0273 25.7881 12.1182 25.9521 12.2998C26.1162 12.4814 26.1982 12.7041 26.1982 12.9678C26.1982 13.2314 26.1162 13.4512 25.9521 13.627C25.7881 13.8027 25.5479 13.8906 25.2314 13.8906C24.915 13.8906 24.6748 13.8027 24.5107 13.627C24.3525 13.4512 24.2734 13.2314 24.2734 12.9678ZM30.1797 15.4902L30.2324 16.6855C30.959 15.7715 31.9082 15.3145 33.0801 15.3145C35.0898 15.3145 36.1035 16.4482 36.1211 18.7158V25H34.4951V18.707C34.4893 18.0215 34.3311 17.5146 34.0205 17.1865C33.7158 16.8584 33.2383 16.6943 32.5879 16.6943C32.0605 16.6943 31.5977 16.835 31.1992 17.1162C30.8008 17.3975 30.4902 17.7666 30.2676 18.2236V25H28.6416V15.4902H30.1797ZM38.1777 20.166C38.1777 18.707 38.5234 17.5352 39.2148 16.6504C39.9062 15.7598 40.8115 15.3145 41.9307 15.3145C43.0439 15.3145 43.9258 15.6953 44.5762 16.457V11.5H46.2021V25H44.708L44.6289 23.9805C43.9785 24.7773 43.0732 25.1758 41.9131 25.1758C40.8115 25.1758 39.9121 24.7246 39.2148 23.8223C38.5234 22.9199 38.1777 21.7422 38.1777 20.2891V20.166ZM39.8037 20.3506C39.8037 21.4287 40.0264 22.2725 40.4717 22.8818C40.917 23.4912 41.5322 23.7959 42.3174 23.7959C43.3486 23.7959 44.1016 23.333 44.5762 22.4072V18.0391C44.0898 17.1426 43.3428 16.6943 42.335 16.6943C41.5381 16.6943 40.917 17.002 40.4717 17.6172C40.0264 18.2324 39.8037 19.1436 39.8037 20.3506ZM48.3027 20.1572C48.3027 19.2256 48.4844 18.3877 48.8477 17.6436C49.2168 16.8994 49.7266 16.3252 50.377 15.9209C51.0332 15.5166 51.7803 15.3145 52.6182 15.3145C53.9131 15.3145 54.959 15.7627 55.7559 16.6592C56.5586 17.5557 56.96 18.748 56.96 20.2363V20.3506C56.96 21.2764 56.7812 22.1084 56.4238 22.8467C56.0723 23.5791 55.5654 24.1504 54.9033 24.5605C54.2471 24.9707 53.4912 25.1758 52.6357 25.1758C51.3467 25.1758 50.3008 24.7275 49.498 23.8311C48.7012 22.9346 48.3027 21.748 48.3027 20.2715V20.1572ZM49.9375 20.3506C49.9375 21.4053 50.1807 22.252 50.667 22.8906C51.1592 23.5293 51.8154 23.8486 52.6357 23.8486C53.4619 23.8486 54.1182 23.5264 54.6045 22.8818C55.0908 22.2314 55.334 21.3232 55.334 20.1572C55.334 19.1143 55.085 18.2705 54.5869 17.626C54.0947 16.9756 53.4385 16.6504 52.6182 16.6504C51.8154 16.6504 51.168 16.9697 50.6758 17.6084C50.1836 18.2471 49.9375 19.1611 49.9375 20.3506ZM67.4189 22.7588L69.2471 15.4902H70.873L68.1045 25H66.7861L64.4746 17.793L62.2246 25H60.9062L58.1465 15.4902H59.7637L61.6357 22.6094L63.8506 15.4902H65.1602L67.4189 22.7588ZM78.0713 22.4775C78.0713 22.0381 77.9043 21.6982 77.5703 21.458C77.2422 21.2119 76.665 21.001 75.8389 20.8252C75.0186 20.6494 74.3652 20.4385 73.8789 20.1924C73.3984 19.9463 73.041 19.6533 72.8066 19.3135C72.5781 18.9736 72.4639 18.5693 72.4639 18.1006C72.4639 17.3213 72.792 16.6621 73.4482 16.123C74.1104 15.584 74.9541 15.3145 75.9795 15.3145C77.0576 15.3145 77.9307 15.5928 78.5986 16.1494C79.2725 16.7061 79.6094 17.418 79.6094 18.2852H77.9746C77.9746 17.8398 77.7842 17.4561 77.4033 17.1338C77.0283 16.8115 76.5537 16.6504 75.9795 16.6504C75.3877 16.6504 74.9248 16.7793 74.5908 17.0371C74.2568 17.2949 74.0898 17.6318 74.0898 18.0479C74.0898 18.4404 74.2451 18.7363 74.5557 18.9355C74.8662 19.1348 75.4258 19.3252 76.2344 19.5068C77.0488 19.6885 77.708 19.9053 78.2119 20.1572C78.7158 20.4092 79.0879 20.7139 79.3281 21.0713C79.5742 21.4229 79.6973 21.8535 79.6973 22.3633C79.6973 23.2129 79.3574 23.8955 78.6777 24.4111C77.998 24.9209 77.1162 25.1758 76.0322 25.1758C75.2705 25.1758 74.5967 25.041 74.0107 24.7715C73.4248 24.502 72.9648 24.127 72.6309 23.6465C72.3027 23.1602 72.1387 22.6357 72.1387 22.0732H73.7646C73.7939 22.6182 74.0107 23.0518 74.415 23.374C74.8252 23.6904 75.3643 23.8486 76.0322 23.8486C76.6475 23.8486 77.1396 23.7256 77.5088 23.4795C77.8838 23.2275 78.0713 22.8936 78.0713 22.4775ZM81.7627 24.1475C81.7627 23.8662 81.8447 23.6318 82.0088 23.4443C82.1787 23.2568 82.4307 23.1631 82.7646 23.1631C83.0986 23.1631 83.3506 23.2568 83.5205 23.4443C83.6963 23.6318 83.7842 23.8662 83.7842 24.1475C83.7842 24.417 83.6963 24.6426 83.5205 24.8242C83.3506 25.0059 83.0986 25.0967 82.7646 25.0967C82.4307 25.0967 82.1787 25.0059 82.0088 24.8242C81.8447 24.6426 81.7627 24.417 81.7627 24.1475ZM81.7715 16.3867C81.7715 16.1055 81.8535 15.8711 82.0176 15.6836C82.1875 15.4961 82.4395 15.4023 82.7734 15.4023C83.1074 15.4023 83.3594 15.4961 83.5293 15.6836C83.7051 15.8711 83.793 16.1055 83.793 16.3867C83.793 16.6562 83.7051 16.8818 83.5293 17.0635C83.3594 17.2451 83.1074 17.3359 82.7734 17.3359C82.4395 17.3359 82.1875 17.2451 82.0176 17.0635C81.8535 16.8818 81.7715 16.6562 81.7715 16.3867Z" fill="black"/>
<path d="M154.961 19.3486H149.591V25H147.903V12.2031H155.831V13.5918H149.591V17.9688H154.961V19.3486ZM162.774 25H161.14V14.1631L157.861 15.3672V13.8906L162.52 12.1416H162.774V25ZM172.882 25H171.247V14.1631L167.969 15.3672V13.8906L172.627 12.1416H172.882V25Z" fill="black"/>
<path d="M160.179 71.3028C160.284 71.1904 160.411 71.1008 160.552 71.0396C160.694 70.9783 160.846 70.9467 161 70.9467C161.154 70.9467 161.306 70.9783 161.448 71.0396C161.589 71.1008 161.716 71.1904 161.821 71.3028L168.959 78.9191C169.634 79.6368 169.124 80.8125 168.138 80.8125H164.938V84.1875C164.938 84.4858 164.819 84.772 164.608 84.983C164.397 85.1939 164.111 85.3125 163.813 85.3125H158.188C157.889 85.3125 157.603 85.1939 157.392 84.983C157.181 84.772 157.063 84.4858 157.063 84.1875V80.8125H153.861C152.878 80.8125 152.367 79.6368 153.04 78.918L160.179 71.3028ZM168.139 79.6875L161 72.0723L153.861 79.6875H157.063C157.361 79.6875 157.647 79.806 157.858 80.017C158.069 80.2279 158.188 80.5141 158.188 80.8125V84.1875H163.813V80.8125C163.813 80.5141 163.931 80.2279 164.142 80.017C164.353 79.806 164.639 79.6875 164.938 79.6875H168.139Z" fill="black"/>
<path d="M205.5 71.75C205.691 71.75 205.873 71.8257 206.008 71.9605C206.143 72.0953 206.219 72.2781 206.219 72.4688V76.7812H210.531C210.722 76.7812 210.905 76.857 211.039 76.9918C211.174 77.1266 211.25 77.3094 211.25 77.5C211.25 77.6906 211.174 77.8734 211.039 78.0082C210.905 78.143 210.722 78.2188 210.531 78.2188H206.219V82.5312C206.219 82.7219 206.143 82.9047 206.008 83.0395C205.873 83.1743 205.691 83.25 205.5 83.25C205.309 83.25 205.127 83.1743 204.992 83.0395C204.857 82.9047 204.781 82.7219 204.781 82.5312V78.2188H200.469C200.278 78.2188 200.095 78.143 199.961 78.0082C199.826 77.8734 199.75 77.6906 199.75 77.5C199.75 77.3094 199.826 77.1266 199.961 76.9918C200.095 76.857 200.278 76.7812 200.469 76.7812H204.781V72.4688C204.781 72.2781 204.857 72.0953 204.992 71.9605C205.127 71.8257 205.309 71.75 205.5 71.75V71.75Z" fill="black"/>
<path d="M305.5 71.75C305.691 71.75 305.873 71.8257 306.008 71.9605C306.143 72.0953 306.219 72.2781 306.219 72.4688V76.7812H310.531C310.722 76.7812 310.905 76.857 311.039 76.9918C311.174 77.1266 311.25 77.3094 311.25 77.5C311.25 77.6906 311.174 77.8734 311.039 78.0082C310.905 78.143 310.722 78.2188 310.531 78.2188H306.219V82.5312C306.219 82.7219 306.143 82.9047 306.008 83.0395C305.873 83.1743 305.691 83.25 305.5 83.25C305.309 83.25 305.127 83.1743 304.992 83.0395C304.857 82.9047 304.781 82.7219 304.781 82.5312V78.2188H300.469C300.278 78.2188 300.095 78.143 299.961 78.0082C299.826 77.8734 299.75 77.6906 299.75 77.5C299.75 77.3094 299.826 77.1266 299.961 76.9918C300.095 76.857 300.278 76.7812 300.469 76.7812H304.781V72.4688C304.781 72.2781 304.857 72.0953 304.992 71.9605C305.127 71.8257 305.309 71.75 305.5 71.75V71.75Z" fill="black"/>
<path d="M250 80C247.794 80 246 81.794 246 84C246 86.206 247.794 88 250 88C251.057 87.9987 252.07 87.5795 252.819 86.8339C253.568 86.0883 253.992 85.0768 253.998 84.02H254V82H258V84.039H258.004C258.015 85.0922 258.44 86.0988 259.188 86.8403C259.936 87.5818 260.947 87.9985 262 88C264.206 88 266 86.206 266 84C266 81.794 264.206 80 262 80H260V76H262C264.206 76 266 74.206 266 72C266 69.794 264.206 68 262 68C259.794 68 258 69.794 258 72V74H254V71.98H253.998C253.992 70.9232 253.568 69.9117 252.819 69.1661C252.07 68.4205 251.057 68.0013 250 68C247.794 68 246 69.794 246 72C246 74.206 247.794 76 250 76H252V80H250ZM252 84C252 85.122 251.121 86 250 86C248.879 86 248 85.122 248 84C248 82.878 248.879 82 250 82H252V84ZM262 82C263.121 82 264 82.878 264 84C264 85.122 263.121 86 262 86C260.879 86 260 85.122 260 84V82H262ZM260 72C260 70.878 260.879 70 262 70C263.121 70 264 70.878 264 72C264 73.122 263.121 74 262 74H260V72ZM250 74C248.879 74 248 73.122 248 72C248 70.878 248.879 70 250 70C251.121 70 252 70.878 252 72V74H250ZM254 76H258V80H254V76Z" fill="black"/>
</svg>
