<?xml version="1.0" standalone="no"?>
<!DOCTYPE svg PUBLIC "-//W3C//DTD SVG 20010904//EN"
 "http://www.w3.org/TR/2001/REC-SVG-20010904/DTD/svg10.dtd">
<svg version="1.0" xmlns="http://www.w3.org/2000/svg"
 width="388.000000pt" height="388.000000pt" viewBox="0 0 388.000000 388.000000"
 preserveAspectRatio="xMidYMid meet">
<metadata>
Created by potrace 1.14, written by Peter Selinger 2001-2017
</metadata>
<g transform="translate(0.000000,388.000000) scale(0.100000,-0.100000)"
fill="#000000" stroke="none">
<path d="M2152 3662 c-13 -37 -25 -80 -28 -97 -3 -16 -12 -38 -20 -49 -15 -22
-19 -52 -6 -58 4 -1 15 -20 25 -42 17 -37 17 -38 0 -31 -53 21 -77 9 -88 -43
-8 -39 15 -54 44 -28 21 19 31 12 31 -21 0 -14 -6 -23 -16 -23 -16 0 -16 -8
-3 -60 3 -11 -4 -15 -26 -15 -23 0 -31 -5 -33 -22 -4 -27 29 -47 67 -40 l26 5
-28 -24 c-26 -22 -27 -25 -14 -51 13 -25 12 -34 -5 -83 -10 -30 -20 -62 -22
-70 -1 -8 -6 -24 -10 -35 -14 -37 -24 -69 -91 -290 -100 -329 -97 -322 -106
-299 -4 10 -31 91 -59 179 -69 218 -91 276 -102 269 -5 -3 -6 -14 -3 -25 4
-10 8 -29 11 -41 4 -23 5 -30 23 -103 10 -39 15 -65 26 -122 3 -16 10 -41 15
-58 4 -16 11 -47 15 -68 3 -21 9 -46 12 -55 4 -9 -14 1 -38 23 -25 22 -65 56
-89 76 -25 21 -88 77 -140 127 -52 49 -132 121 -177 160 -45 38 -97 84 -115
101 -40 38 -63 41 -54 7 9 -36 99 -217 176 -351 12 -22 54 -101 92 -175 39
-74 74 -139 79 -144 16 -18 9 -26 -13 -17 -13 5 -109 52 -215 104 -188 94
-246 112 -159 48 25 -17 46 -31 49 -31 3 0 29 -16 58 -35 30 -20 62 -41 73
-48 10 -7 29 -20 41 -30 13 -9 26 -17 29 -17 8 0 117 -72 114 -76 -3 -2 -64
-6 -263 -19 -275 -18 -293 -19 -420 -31 -83 -7 -73 -7 -111 -5 -22 1 -33 7
-37 21 -7 26 -52 36 -84 19 -14 -8 -34 -15 -45 -15 -10 -1 -27 -2 -38 -3 -34
-2 -22 -18 23 -29 24 -6 52 -21 62 -32 23 -26 34 -25 74 4 l32 24 60 -23 c33
-13 62 -24 64 -25 14 -2 34 -8 65 -19 19 -7 42 -14 50 -16 8 -3 87 -30 175
-61 88 -30 203 -71 255 -89 52 -18 88 -35 80 -38 -8 -3 -46 -17 -85 -30 -38
-14 -134 -47 -213 -74 -78 -26 -141 -52 -139 -58 5 -13 19 -11 222 37 94 21
181 41 195 44 14 3 33 7 43 10 24 7 21 -12 -4 -30 -13 -9 -18 -19 -14 -27 5
-7 4 -10 -2 -6 -6 4 -35 -21 -64 -56 -30 -34 -61 -69 -69 -78 -42 -45 -200
-225 -231 -263 -13 -16 -40 -48 -59 -70 -19 -23 -40 -48 -47 -56 -7 -9 -9 -21
-4 -29 6 -10 16 -6 40 18 17 17 36 31 42 31 5 0 33 15 62 33 29 18 67 39 85
47 45 18 399 197 440 222 18 11 35 19 37 17 2 -2 -44 -100 -102 -217 -58 -117
-103 -215 -101 -217 2 -3 26 32 53 76 27 45 55 83 61 86 7 2 43 55 80 116 77
129 73 122 78 116 4 -4 15 -123 21 -219 1 -25 5 -79 9 -120 14 -173 19 -238
20 -295 0 -33 4 -65 8 -71 5 -7 1 -14 -7 -18 -8 -3 -12 -12 -9 -21 3 -8 9 -13
13 -11 4 3 8 -8 9 -24 2 -25 -2 -31 -30 -38 -17 -4 -36 -15 -41 -24 -15 -22
-1 -48 25 -48 17 0 19 -3 10 -12 -15 -15 -16 -45 -1 -50 15 -5 0 -38 -17 -38
-8 0 -17 7 -20 15 -9 21 -41 19 -54 -4 -25 -48 -4 -81 53 -84 31 -2 33 -4 25
-23 -7 -15 -5 -30 6 -53 20 -37 25 -38 50 -4 16 21 17 31 8 55 -11 30 -2 37
17 14 14 -17 70 -13 83 6 4 7 7 27 6 43 -3 25 -8 31 -30 33 -17 2 -28 -1 -28
-9 0 -8 -4 -8 -15 1 -17 14 -21 55 -5 45 16 -10 24 24 9 41 -11 14 -10 15 6
13 27 -5 45 8 45 31 0 20 -34 45 -49 36 -19 -12 -20 42 -2 99 24 75 64 207 67
220 1 6 9 33 18 60 8 28 41 136 72 240 31 105 57 191 58 193 2 1 24 -60 49
-135 83 -248 112 -325 122 -323 6 0 9 9 8 18 -3 23 -78 357 -92 406 -6 22 -9
41 -8 43 2 1 19 -12 39 -30 101 -91 186 -168 211 -189 37 -30 84 -72 144 -128
73 -69 194 -160 204 -154 10 6 -12 63 -41 104 -11 15 -20 31 -20 35 0 7 -52
112 -97 195 -74 135 -194 372 -191 375 1 1 64 -27 138 -63 74 -36 171 -83 214
-104 76 -36 113 -42 71 -11 -19 14 -315 202 -365 231 -25 15 -20 26 13 28 12
1 74 5 137 8 63 4 133 9 155 12 22 2 85 6 140 9 55 3 118 8 140 10 173 17 205
17 205 1 0 -8 11 -23 25 -32 23 -15 27 -15 49 -1 21 14 55 24 94 26 26 2 10
19 -32 35 -25 9 -50 24 -56 32 -17 20 -47 17 -71 -7 -16 -16 -27 -19 -52 -13
-18 4 -36 9 -42 10 -11 2 -56 16 -220 69 -61 19 -115 35 -121 35 -5 0 -50 13
-99 29 -50 16 -131 41 -181 56 l-92 28 112 39 c61 22 125 43 141 48 17 4 61
20 100 34 38 14 77 26 86 26 19 0 33 26 19 35 -6 4 -15 3 -21 -1 -9 -5 -153
-40 -244 -60 -11 -2 -49 -11 -85 -19 -131 -31 -127 -33 -72 27 50 55 48 52
127 143 39 44 79 89 90 101 11 12 35 39 53 60 19 21 53 61 75 87 23 27 59 68
79 90 21 23 38 48 38 55 0 14 -36 16 -45 2 -3 -5 -32 -21 -63 -35 -31 -14 -75
-35 -97 -46 -38 -20 -339 -176 -436 -227 -38 -20 -46 -29 -45 -51 2 -49 23
-46 99 15 40 32 77 63 82 69 20 22 76 57 82 51 3 -3 22 7 42 23 38 29 79 53
47 27 -11 -9 -16 -19 -13 -23 4 -3 20 5 35 19 15 14 41 34 57 44 l30 18 -28
-27 c-15 -15 -31 -27 -34 -27 -3 0 -22 -15 -43 -34 -20 -18 -46 -38 -56 -44
-10 -6 -16 -14 -12 -17 5 -6 168 117 217 163 24 23 61 45 67 39 3 -3 -23 -27
-58 -53 -35 -26 -65 -51 -68 -54 -3 -3 -39 -33 -80 -65 -41 -33 -81 -65 -88
-72 -7 -6 -39 -33 -72 -59 -33 -26 -57 -51 -53 -57 3 -6 1 -7 -5 -3 -9 5 -98
-59 -206 -150 -47 -40 -54 -26 -8 16 24 22 47 40 50 40 4 0 18 10 32 23 14 12
47 39 73 61 27 21 46 40 43 43 -2 3 -57 -38 -122 -91 -110 -90 -155 -118 -123
-79 12 15 12 16 -3 10 -28 -10 -22 -3 29 33 25 19 43 28 39 22 -13 -22 9 -12
49 23 22 19 35 35 29 35 -6 0 -17 -7 -24 -15 -7 -9 -19 -14 -26 -11 -7 3 -16
0 -20 -6 -4 -7 -3 -8 4 -4 7 4 12 2 12 -4 0 -7 -7 -9 -16 -6 -10 4 -30 -4 -50
-19 -19 -14 -34 -22 -34 -18 0 4 25 26 55 47 30 22 63 48 73 59 16 19 16 19
-3 9 -11 -5 -37 -24 -59 -41 -46 -37 -63 -42 -22 -6 17 15 23 25 15 25 -8 0 1
13 20 29 35 29 52 67 25 57 -8 -3 -14 -3 -14 -1 0 3 47 100 105 215 58 115
105 214 105 220 0 23 -27 7 -45 -27 -11 -21 -47 -81 -79 -133 -33 -52 -74
-119 -93 -149 -18 -30 -33 -53 -34 -50 -4 26 -16 160 -24 262 -3 37 -7 97 -10
135 -4 37 -8 108 -10 157 -3 50 -8 106 -12 125 -10 56 -10 63 9 96 15 26 16
33 4 49 -19 26 -10 48 14 35 26 -14 52 -2 48 24 -2 11 -8 21 -15 21 -7 0 -18
6 -25 14 -11 11 -10 15 3 24 13 8 14 16 6 43 -5 18 -7 39 -4 48 8 20 37 21 37
2 0 -23 29 -27 40 -6 23 42 -30 91 -81 75 -17 -6 -18 -4 -8 19 7 14 23 33 37
42 23 15 24 19 18 84 -4 37 -9 78 -12 91 -2 13 -6 41 -8 63 -7 63 -20 59 -44
-12z m4 -119 c-11 -11 -19 6 -11 24 8 17 8 17 12 0 3 -10 2 -21 -1 -24z m-6
-33 c0 -5 -7 -16 -16 -24 -8 -9 -11 -16 -5 -16 6 0 11 -10 11 -22 -1 -21 -2
-21 -16 6 -13 24 -14 33 -3 52 11 22 29 24 29 4z m-60 -148 c0 -9 -9 -23 -20
-30 -23 -14 -26 -3 -10 29 13 24 30 25 30 1z m17 -4 c-3 -8 -6 -5 -6 6 -1 11
2 17 5 13 3 -3 4 -12 1 -19z m20 -20 c-3 -8 -6 -5 -6 6 -1 11 2 17 5 13 3 -3
4 -12 1 -19z m-12 -88 c3 -5 1 -10 -4 -10 -6 0 -11 5 -11 10 0 6 2 10 4 10 3
0 8 -4 11 -10z m-20 -80 c-3 -5 -16 -10 -28 -9 -20 1 -20 2 3 9 14 4 26 8 28
9 2 1 0 -3 -3 -9z m-31 -457 c-12 -104 -24 -220 -28 -259 -4 -39 -8 -80 -10
-90 -2 -11 -7 -53 -11 -94 -3 -41 -8 -86 -10 -100 -2 -14 -7 -50 -10 -80 -4
-30 -8 -57 -10 -58 -9 -9 -24 39 -28 93 -3 33 -3 51 0 41 4 -15 7 -16 15 -5 7
10 8 9 3 -6 -8 -25 -8 -23 -5 -65 2 -24 6 -9 14 45 7 44 9 85 5 90 -4 6 -9 39
-12 75 -3 36 -3 55 0 42 2 -12 7 -20 11 -18 4 2 5 -19 3 -47 -5 -77 6 -53 13
28 6 65 9 83 20 157 3 15 0 30 -5 33 -5 4 -9 12 -9 18 0 8 3 7 9 -2 6 -9 10 0
13 29 2 23 0 44 -4 46 -10 7 -9 73 2 99 5 13 7 -2 4 -40 -3 -53 -2 -55 5 -20
5 22 12 69 15 105 14 140 19 170 30 170 1 0 -8 -84 -20 -187z m-27 5 c-3 -8
-6 -5 -6 6 -1 11 2 17 5 13 3 -3 4 -12 1 -19z m-725 -71 c4 2 4 -5 1 -14 -5
-12 -2 -15 10 -10 12 4 25 -5 44 -31 43 -57 86 -103 91 -97 3 3 -3 15 -14 28
-10 13 0 3 23 -22 24 -26 43 -42 43 -37 0 15 47 -33 97 -97 25 -32 48 -56 51
-53 3 3 -3 16 -13 28 -10 13 6 -2 36 -32 29 -30 50 -46 46 -35 -5 13 1 10 17
-10 13 -16 30 -30 38 -30 7 -1 12 -7 10 -14 -1 -7 3 -21 9 -30 7 -9 -4 2 -24
24 -20 22 -36 35 -37 29 0 -6 7 -17 15 -24 8 -7 15 -18 15 -24 0 -6 -9 0 -20
14 -11 14 -20 20 -20 14 0 -6 9 -19 20 -29 11 -10 20 -14 20 -10 0 5 11 -2 25
-15 14 -13 25 -28 25 -33 0 -5 -10 2 -21 17 -12 15 -24 25 -26 22 -3 -3 9 -23
27 -46 29 -36 31 -57 2 -28 -21 21 -13 -2 12 -35 27 -37 33 -75 7 -54 -12 10
-14 9 -8 -5 12 -33 -8 -17 -53 42 -25 33 -51 57 -58 55 -7 -3 -10 -1 -7 5 3 5
-7 27 -22 49 -20 28 -33 38 -45 35 -10 -3 -18 0 -18 6 0 6 5 8 10 5 24 -15 -4
30 -54 85 -7 8 -44 56 -82 105 -38 50 -79 101 -91 115 -13 14 -19 26 -14 28 6
2 7 10 4 18 -4 11 -8 12 -13 4 -4 -7 -31 22 -69 72 -34 46 -47 67 -29 48 18
-19 36 -34 40 -33z m695 -19 c-3 -8 -6 -5 -6 6 -1 11 2 17 5 13 3 -3 4 -12 1
-19z m-5 -50 c-8 -8 -9 -4 -5 13 4 13 8 18 11 10 2 -7 -1 -18 -6 -23z m21 -13
c-3 -9 -8 -14 -10 -11 -3 3 -2 9 2 15 9 16 15 13 8 -4z m-15 -113 l-1 -37 -4
33 c-2 18 -8 30 -14 27 -5 -3 -6 1 -3 9 10 27 24 7 22 -32z m239 -169 c-52
-104 -106 -214 -121 -245 l-28 -56 32 -34 c18 -18 36 -44 41 -57 7 -18 14 -22
32 -16 23 7 45 12 202 50 95 23 270 63 308 70 9 2 22 7 27 10 6 3 10 3 10 0 0
-6 -62 -34 -89 -40 -9 -2 -113 -37 -231 -78 l-215 -74 -6 -59 c-6 -61 7 -94
38 -94 7 0 13 -4 13 -10 0 -5 5 -10 10 -10 9 0 164 -97 242 -151 15 -11 31
-19 36 -19 5 0 17 -9 27 -20 10 -11 23 -20 29 -20 6 -1 25 -12 41 -26 22 -18
3 -11 -70 24 -282 139 -392 192 -399 192 -4 0 -29 -21 -56 -47 l-49 -48 18
-75 c23 -96 54 -232 56 -245 1 -5 5 -23 9 -40 21 -83 35 -149 33 -152 -6 -5
-159 421 -172 477 -6 24 -10 25 -86 28 -69 3 -80 1 -86 -15 -4 -10 -41 -72
-83 -138 -42 -66 -98 -155 -124 -197 -26 -43 -49 -78 -52 -78 -5 0 2 15 139
289 l87 173 -35 35 c-18 18 -37 43 -40 53 -7 23 -8 23 -59 9 -21 -6 -47 -12
-58 -14 -11 -3 -82 -18 -157 -36 -198 -46 -253 -57 -244 -49 8 7 192 70 386
133 l97 32 0 50 c0 28 6 60 14 71 8 11 11 25 8 31 -9 13 -164 115 -322 212
-66 40 -119 75 -117 78 4 4 134 -58 290 -138 54 -28 102 -49 107 -47 5 2 -11
30 -37 63 -25 33 -38 52 -28 43 17 -16 19 -16 30 -1 10 13 14 13 20 3 6 -9 4
-11 -5 -5 -8 5 -11 3 -8 -6 3 -8 10 -13 15 -12 6 1 21 -10 34 -25 22 -25 22
-26 2 -8 -13 11 -23 15 -23 11 0 -4 -9 0 -20 10 -11 10 -20 14 -20 8 0 -13 35
-45 42 -37 3 3 9 0 14 -7 4 -8 3 -10 -4 -5 -7 4 -12 3 -12 -3 0 -5 5 -13 10
-16 6 -4 8 -11 5 -16 -4 -5 10 -16 29 -26 36 -17 36 -16 64 10 15 15 33 27 39
27 24 0 34 28 24 67 -38 144 -92 405 -86 412 2 2 7 -10 11 -25 3 -16 28 -92
54 -169 27 -77 53 -158 59 -180 16 -59 20 -62 91 -69 l65 -7 40 68 c21 37 42
70 45 73 4 3 13 17 21 32 18 34 182 288 186 288 2 0 -39 -84 -90 -187z m-260
145 c-3 -8 -6 -5 -6 6 -1 11 2 17 5 13 3 -3 4 -12 1 -19z m-584 -31 c4 3 7 4
7 0 0 -17 -20 -14 -36 6 -19 22 -19 22 2 4 11 -9 24 -14 27 -10z m524 -9 c-3
-8 -6 -5 -6 6 -1 11 2 17 5 13 3 -3 4 -12 1 -19z m75 -3 c-2 -14 -6 -25 -8
-25 -2 0 -4 11 -4 25 0 14 4 25 9 25 4 0 6 -11 3 -25z m-22 -10 c0 -2 -6 -2
-14 1 -10 4 -12 -2 -8 -23 2 -15 2 -26 -1 -23 -3 3 -7 20 -10 37 -5 30 -3 32
14 23 10 -6 19 -13 19 -15z m-42 -46 c-3 -20 -5 -19 -9 9 -3 20 -2 29 4 23 5
-5 7 -19 5 -32z m-468 -4 c14 -19 14 -19 -2 -6 -10 7 -18 18 -18 24 0 6 1 8 3
6 1 -2 9 -13 17 -24z m-49 -2 c13 -16 12 -17 -3 -4 -10 7 -18 15 -18 17 0 8 8
3 21 -13z m476 -15 c-3 -7 -5 -2 -5 12 0 14 2 19 5 13 2 -7 2 -19 0 -25z m20
-10 c-3 -8 -6 -5 -6 6 -1 11 2 17 5 13 3 -3 4 -12 1 -19z m52 -23 c0 -5 -4 -3
-9 5 -5 8 -9 22 -9 30 0 16 17 -16 18 -35z m-484 14 c-8 -12 75 -110 87 -103
7 5 8 2 4 -5 -5 -7 0 -22 11 -34 15 -19 16 -20 1 -8 -10 7 -18 9 -18 3 0 -12
25 -34 32 -27 3 3 11 -3 19 -12 12 -16 12 -17 -2 -6 -9 7 -18 10 -21 7 -3 -3
-23 16 -43 41 -21 25 -40 43 -43 40 -3 -3 3 -14 12 -24 10 -11 15 -25 11 -31
-3 -6 -1 -9 5 -8 7 2 36 -27 66 -64 30 -37 48 -65 40 -62 -8 3 -17 12 -20 20
-3 9 -10 13 -14 10 -5 -3 -22 9 -39 27 -37 39 -81 103 -65 93 22 -13 12 8 -19
43 -16 19 -27 41 -24 49 3 8 0 22 -7 31 -12 14 -11 14 5 2 18 -14 24 -2 7 15
-7 7 -6 11 4 11 8 0 13 -4 11 -8z m460 -18 c2 -12 0 -19 -5 -16 -5 3 -11 -3
-13 -12 -3 -13 -5 -10 -6 7 -1 21 -3 22 -12 10 -9 -13 -10 -13 -6 0 2 8 11 14
20 12 12 -2 15 2 10 15 -3 10 -3 15 1 12 4 -4 9 -16 11 -28z m202 -33 c-2 -13
-4 -5 -4 17 -1 22 1 32 4 23 2 -10 2 -28 0 -40z m20 15 c-3 -10 -5 -4 -5 12 0
17 2 24 5 18 2 -7 2 -21 0 -30z m247 3 c-11 -8 -44 -35 -74 -59 -30 -25 -57
-43 -60 -41 -3 3 3 10 12 15 9 5 43 31 75 58 32 27 60 47 62 45 3 -3 -4 -11
-15 -18z m-436 -62 c-3 -14 -5 -12 -10 9 -3 19 -2 25 4 19 6 -6 8 -18 6 -28z
m362 32 c0 -3 -15 -14 -32 -26 l-33 -22 30 26 c31 27 35 29 35 22z m-453 -28
c-3 -8 -6 -5 -6 6 -1 11 2 17 5 13 3 -3 4 -12 1 -19z m48 -6 c2 -13 -1 -19
-10 -18 -21 3 -31 16 -12 16 11 0 14 5 10 18 -3 9 -3 14 1 11 4 -4 8 -15 11
-27z m-327 -24 c-2 -7 3 -12 10 -10 8 1 11 -2 7 -8 -4 -6 -3 -17 2 -23 4 -7
-2 -2 -14 12 -12 14 -20 28 -17 33 8 12 14 10 12 -4z m632 8 c0 -2 -8 -10 -17
-17 -16 -13 -17 -12 -4 4 13 16 21 21 21 13z m302 -19 c-12 -13 -20 -26 -17
-29 3 -3 -3 -11 -12 -19 -16 -13 -17 -12 -4 4 7 9 10 17 5 17 -4 0 3 11 16 25
13 14 26 25 28 25 3 0 -4 -10 -16 -23z m-605 -19 c-3 -8 -6 -5 -6 6 -1 11 2
17 5 13 3 -3 4 -12 1 -19z m-7 -23 c5 3 12 0 16 -6 4 -8 3 -9 -4 -5 -7 4 -12
0 -13 -11 0 -16 -1 -16 -9 2 -5 11 -8 29 -8 40 1 17 1 16 5 -3 2 -12 8 -20 13
-17z m625 5 c-8 -9 -13 -19 -10 -22 3 -3 -5 -13 -17 -24 l-23 -19 19 23 c11
12 16 22 11 22 -4 0 -2 6 4 13 6 8 9 16 6 19 -3 2 2 5 10 5 13 0 13 -2 0 -17z
m-85 6 c0 -2 -8 -10 -17 -17 -16 -13 -17 -12 -4 4 13 16 21 21 21 13z m-799
-23 c13 -16 12 -17 -3 -4 -10 7 -18 15 -18 17 0 8 8 3 21 -13z m759 -6 c0 -2
-10 -12 -22 -23 l-23 -19 19 23 c18 21 26 27 26 19z m-483 -44 c-3 -10 -5 -4
-5 12 0 17 2 24 5 18 2 -7 2 -21 0 -30z m548 17 c-8 -9 -12 -20 -8 -25 5 -4
-2 -3 -14 4 -18 9 -26 7 -52 -15 -17 -14 -35 -23 -40 -20 -5 3 -22 -4 -37 -16
-26 -20 -27 -20 -11 -2 9 11 15 23 12 26 -3 3 3 11 12 19 16 13 17 12 4 -3 -7
-10 -10 -18 -6 -18 5 0 18 8 29 18 20 16 20 16 7 0 -7 -10 -9 -18 -3 -18 15 0
33 26 24 35 -4 5 -2 5 4 2 7 -4 23 2 35 12 13 11 32 19 41 18 15 -1 16 -3 3
-17z m-794 -7 c13 -16 12 -17 -3 -4 -10 7 -18 15 -18 17 0 8 8 3 21 -13z m745
-40 c-2 -10 -8 -18 -14 -18 -7 0 -11 -4 -9 -10 2 -11 16 -9 34 7 7 6 10 15 6
21 -4 6 -1 7 7 2 10 -6 5 -15 -20 -37 -23 -18 -37 -25 -44 -18 -18 18 -27 11
-15 -11 8 -16 8 -20 -1 -14 -6 4 -21 -1 -33 -12 -19 -15 -20 -16 -8 0 17 21
-2 23 -19 2 -7 -9 -19 -14 -25 -11 -7 2 -17 0 -22 -5 -7 -7 -12 -5 -17 6 -3
10 -2 14 5 9 6 -3 22 5 37 17 26 23 26 23 8 2 -11 -13 -15 -23 -9 -23 13 0 45
35 38 42 -3 3 3 11 12 19 16 13 17 12 5 -2 -10 -14 -10 -18 3 -22 8 -4 14 -2
12 3 -1 6 58 67 70 70 1 0 0 -8 -1 -17z m-684 -18 c3 0 9 -3 13 -7 4 -3 0 -5
-9 -4 -9 1 -22 8 -29 16 -10 10 -9 11 3 4 8 -5 18 -9 22 -9z m549 -8 c-6 -8
-9 -16 -6 -19 3 -3 -3 -11 -12 -19 -16 -13 -17 -12 -4 4 7 9 10 17 6 17 -4 0
-2 7 5 15 7 8 15 15 17 15 3 0 0 -6 -6 -13z m-37 -16 c3 -5 -2 -15 -12 -22
-15 -12 -16 -12 -5 2 7 9 10 19 6 22 -3 4 -4 7 0 7 3 0 8 -4 11 -9z m-504 -7
c0 -8 -19 -13 -24 -6 -3 5 1 9 9 9 8 0 15 -2 15 -3z m-1139 -37 c-14 -14 -43
-18 -35 -6 3 5 0 9 -7 9 -7 0 -4 6 7 14 22 17 53 1 35 -17z m782 16 c-7 -2
-21 -2 -30 0 -10 3 -4 5 12 5 17 0 24 -2 18 -5z m-86 -9 c-3 -3 -12 -4 -19 -1
-8 3 -5 6 6 6 11 1 17 -2 13 -5z m73 -10 c0 -2 -13 -4 -30 -4 -16 0 -30 4 -30
8 0 5 14 7 30 4 17 -2 30 -6 30 -8z m93 9 c-7 -2 -21 -2 -30 0 -10 3 -4 5 12
5 17 0 24 -2 18 -5z m-413 -24 c-50 -7 -44 -12 9 -9 19 1 41 8 48 16 8 8 31
13 51 13 l37 -2 -40 -8 c-38 -7 -38 -8 12 -5 47 3 50 2 35 -13 -14 -15 -12
-16 28 -19 40 -3 52 3 62 30 2 4 19 3 38 -2 l35 -8 -38 -1 c-26 -1 -37 -5 -35
-13 5 -14 129 -34 153 -24 30 11 14 26 -27 25 -37 -1 -39 -2 -18 -9 16 -5 2
-6 -35 -3 -72 7 -84 13 -26 13 26 0 40 4 36 10 -3 6 -1 10 5 10 6 0 8 5 4 12
-4 7 -3 8 5 4 6 -4 9 -11 6 -16 -5 -8 163 -25 171 -17 3 2 -26 8 -63 13 -55 6
-62 9 -38 14 17 3 32 2 33 -2 2 -4 19 -8 37 -8 19 0 38 -6 42 -14 4 -8 19 -16
33 -19 14 -2 -11 -2 -56 1 -70 4 -82 2 -87 -13 -8 -20 -1 -35 16 -34 9 0 9 2
0 6 -36 14 -4 17 75 7 56 -7 91 -7 100 -1 9 7 11 6 7 -5 -4 -11 -20 -14 -63
-12 l-57 3 52 -7 c79 -11 78 -25 -2 -17 -38 4 -72 8 -75 10 -3 2 -41 6 -84 10
-44 3 -82 8 -85 10 -4 2 -42 6 -86 10 -44 3 -87 8 -95 10 -8 2 -44 7 -80 10
-36 4 -66 10 -68 14 -1 5 -24 7 -50 6 -32 -2 -35 -1 -9 2 32 4 41 11 39 33 0
3 21 3 46 0 l47 -4 -45 -7z m497 15 c-3 -3 -12 -4 -19 -1 -8 3 -5 6 6 6 11 1
17 -2 13 -5z m-274 -11 c-7 -2 -21 -2 -30 0 -10 3 -4 5 12 5 17 0 24 -2 18 -5z
m-460 -10 c-7 -2 -19 -2 -25 0 -7 3 -2 5 12 5 14 0 19 -2 13 -5z m150 0 c-7
-2 -21 -2 -30 0 -10 3 -4 5 12 5 17 0 24 -2 18 -5z m-65 -10 c-10 -2 -28 -2
-40 0 -13 2 -5 4 17 4 22 1 32 -1 23 -4z m360 0 c-10 -2 -26 -2 -35 0 -10 3
-2 5 17 5 19 0 27 -2 18 -5z m342 -33 c48 -6 50 -7 15 -8 -22 0 -62 3 -90 8
-40 6 -43 7 -15 8 19 0 60 -3 90 -8z m817 -16 c-3 -3 -12 -4 -19 -1 -8 3 -5 6
6 6 11 1 17 -2 13 -5z m-37 -14 c12 -8 12 -10 -2 -15 -9 -4 -31 -5 -50 -2 -32
4 -31 4 7 6 30 1 36 4 25 11 -8 5 -10 10 -5 10 6 0 17 -4 25 -10z m67 -6 c-3
-3 -12 -4 -19 -1 -8 3 -5 6 6 6 11 1 17 -2 13 -5z m82 -10 c10 -9 -45 -3 -59
6 -11 7 -5 8 20 4 19 -4 37 -8 39 -10z m-207 -15 c34 2 38 0 36 -20 -3 -21 2
-24 42 -27 60 -4 64 -12 7 -12 -26 0 -47 -4 -47 -8 0 -9 -140 5 -150 14 -3 3
29 3 70 0 l75 -5 -80 13 c-54 9 -68 14 -43 15 31 1 36 4 33 21 -3 14 0 18 8
13 6 -4 28 -6 49 -4z m103 3 c-37 -4 -38 -5 -15 -13 25 -9 25 -9 -2 -5 -19 2
-28 -1 -28 -10 0 -8 -5 -14 -11 -14 -10 0 -5 13 14 38 5 6 26 11 46 10 l36 -1
-40 -5z m68 -11 c4 10 6 9 6 -3 1 -10 -5 -19 -11 -19 -7 -1 5 -5 27 -9 l40 -7
-36 -2 c-20 0 -39 2 -43 6 -4 4 -24 7 -44 7 l-37 -1 34 4 c27 4 32 7 20 15
-11 8 -11 9 4 4 10 -3 17 0 17 7 0 8 3 8 9 -2 7 -11 9 -11 14 0z m60 2 c-7 -2
-21 -2 -30 0 -10 3 -4 5 12 5 17 0 24 -2 18 -5z m51 -14 c-14 -6 -10 -8 17 -8
43 -1 61 -26 20 -28 -23 -2 -24 -1 -6 7 16 7 10 9 -25 10 -25 2 -58 6 -75 10
-28 8 -28 9 9 7 23 -1 41 3 43 10 3 7 12 9 20 6 14 -6 14 -8 -3 -14z m-361 4
c-7 -2 -19 -2 -25 0 -7 3 -2 5 12 5 14 0 19 -2 13 -5z m486 -29 c2 -2 -7 -4
-22 -4 -14 0 -28 4 -32 9 -5 9 45 5 54 -5z m-1472 0 c-3 -3 -12 -4 -19 -1 -8
3 -5 6 6 6 11 1 17 -2 13 -5z m1328 -14 l-30 -8 36 -1 c20 0 64 -4 99 -8 51
-5 62 -4 55 7 -5 9 -4 11 4 6 6 -4 8 -13 4 -19 -4 -7 -1 -7 9 1 9 7 29 12 45
9 26 -4 25 -4 -7 -7 l-35 -2 30 -8 30 -8 -35 0 c-19 -1 -56 3 -82 7 -27 4 -48
5 -48 0 0 -4 36 -10 80 -14 61 -5 85 -4 98 6 15 13 16 12 3 -3 -8 -11 -9 -18
-3 -18 6 0 14 5 17 10 3 6 18 9 33 9 l27 -1 -30 -8 c-29 -8 -28 -9 10 -8 22 0
47 -2 55 -5 8 -3 24 -8 35 -11 22 -6 -133 3 -165 9 -11 2 -52 6 -92 10 -40 3
-84 7 -98 10 -14 2 -58 7 -98 11 -41 3 -95 9 -120 14 l-47 8 40 0 c22 0 66 -3
98 -7 31 -4 57 -3 57 1 0 4 -20 8 -44 8 -25 0 -47 3 -49 8 -3 4 30 7 72 8 50
0 66 -2 46 -6z m138 -7 c-7 -2 -21 -2 -30 0 -10 3 -4 5 12 5 17 0 24 -2 18 -5z
m-1426 -9 c-3 -3 -12 -4 -19 -1 -8 3 -5 6 6 6 11 1 17 -2 13 -5z m38 -14 c-4
-6 6 -11 22 -11 18 -1 22 -3 10 -6 -24 -6 -50 4 -42 17 3 5 8 10 11 10 3 0 2
-4 -1 -10z m89 1 c4 -5 -3 -7 -14 -4 -23 6 -26 13 -6 13 8 0 17 -4 20 -9z
m189 2 c-7 -2 -19 -2 -25 0 -7 3 -2 5 12 5 14 0 19 -2 13 -5z m-83 -13 c10 -6
2 -7 -25 -3 -49 7 -58 13 -19 13 16 0 36 -5 44 -10z m-115 -18 c-3 -3 -11 0
-18 7 -9 10 -8 11 6 5 10 -3 15 -9 12 -12z m162 12 c-3 -3 -12 -4 -19 -1 -8 3
-5 6 6 6 11 1 17 -2 13 -5z m-99 -11 c-10 -2 -26 -2 -35 0 -10 3 -2 5 17 5 19
0 27 -2 18 -5z m52 -9 c0 -2 -7 -4 -15 -4 -8 0 -15 4 -15 10 0 5 7 7 15 4 8
-4 15 -8 15 -10z m-97 -11 c-7 -2 -19 -2 -25 0 -7 3 -2 5 12 5 14 0 19 -2 13
-5z m864 1 c-3 -3 -12 -4 -19 -1 -8 3 -5 6 6 6 11 1 17 -2 13 -5z m10 -20 c-3
-3 -12 -4 -19 -1 -8 3 -5 6 6 6 11 1 17 -2 13 -5z m973 -9 c0 -8 -4 -15 -10
-15 -5 0 -10 7 -10 15 0 8 5 15 10 15 6 0 10 -7 10 -15z m-819 -13 c-13 -2
-27 0 -32 5 -6 6 3 7 23 4 28 -4 29 -6 9 -9z m-115 -10 c-21 -2 -42 0 -47 5
-4 4 13 6 39 3 l47 -5 -39 -3z m-648 -15 c14 -11 9 -17 -65 -75 -29 -23 -40
-38 -37 -50 5 -14 4 -14 -4 -3 -8 11 -20 6 -64 -31 -29 -24 -91 -73 -138 -108
-47 -35 -87 -67 -90 -70 -7 -8 -251 -201 -270 -213 -8 -5 5 10 30 33 25 23 44
46 43 51 -2 5 33 39 77 75 44 37 78 69 75 72 -3 3 -13 -2 -22 -10 -10 -8 -25
-18 -33 -23 -17 -8 33 37 67 61 12 9 20 21 17 28 -3 8 24 36 65 67 39 30 71
57 71 62 0 9 -15 2 -46 -22 -11 -9 -2 1 20 22 23 21 40 41 39 46 -1 5 8 17 20
27 18 16 20 16 8 2 -7 -10 -9 -18 -3 -18 12 0 34 25 27 32 -3 3 5 13 17 24
l23 19 -19 -22 c-11 -13 -14 -23 -9 -23 6 0 16 7 23 16 8 8 23 20 34 26 12 5
4 -4 -17 -22 -21 -18 -36 -35 -33 -37 3 -3 25 11 50 32 25 20 50 34 56 30 6
-4 17 -1 25 5 11 10 15 10 15 1 0 -7 5 -9 10 -6 6 4 7 11 4 17 -7 11 9 4 34
-15z m909 17 c-3 -3 -12 -4 -19 -1 -8 3 -5 6 6 6 11 1 17 -2 13 -5z m-104 -11
c3 -5 -16 -7 -41 -5 -73 5 -82 10 -20 11 31 0 59 -2 61 -6z m-84 -20 c3 -2 -9
-3 -27 -1 -18 1 -32 6 -32 10 0 8 49 0 59 -9z m128 11 c-3 -3 -12 -4 -19 -1
-8 3 -5 6 6 6 11 1 17 -2 13 -5z m-346 -73 c-9 -6 -10 -11 -2 -15 6 -4 11 -2
11 5 0 7 8 5 20 -6 11 -10 20 -14 20 -9 0 5 -9 18 -21 27 -11 10 -18 21 -15
24 3 4 18 -7 32 -23 18 -20 24 -23 20 -10 -6 16 -4 17 9 6 13 -11 13 -15 3
-21 -7 -5 -10 -9 -5 -10 4 -1 10 -2 15 -3 4 -1 13 -5 20 -9 6 -5 12 -4 12 0 0
5 -6 15 -12 22 -9 9 -9 12 -1 7 6 -3 26 -25 44 -49 20 -25 24 -34 11 -23 -34
29 -26 9 16 -43 21 -25 42 -53 47 -61 8 -13 7 -13 -8 -1 -29 23 -19 1 21 -48
38 -46 61 -88 42 -76 -20 12 -9 -9 25 -51 35 -42 44 -61 25 -49 -19 12 -10 -7
28 -53 20 -26 29 -41 20 -33 -27 21 -21 0 10 -37 15 -18 36 -47 46 -65 l18
-32 -29 30 c-16 17 -42 48 -58 70 -43 58 -256 326 -282 355 -13 14 -23 28 -23
31 0 3 -13 22 -30 40 -44 50 -117 156 -95 139 17 -14 18 -13 12 3 -4 11 -3 16
3 12 6 -3 10 0 10 7 0 7 12 0 28 -15 21 -22 24 -29 13 -36z m-506 -31 c-6 -9
7 -14 30 -11 10 1 -11 -19 -80 -77 -22 -19 -31 -31 -21 -28 16 6 17 4 6 -9 -7
-8 -8 -15 -3 -15 13 0 45 35 38 42 -3 3 5 13 17 24 23 19 23 19 7 -1 -9 -11
-14 -26 -12 -32 3 -7 0 -13 -6 -13 -6 0 -10 -4 -8 -9 1 -5 -1 -8 -4 -7 -3 0
-23 -12 -45 -28 -39 -29 -39 -29 -15 -3 37 41 11 32 -34 -11 -44 -43 -102 -79
-76 -49 7 10 10 17 5 17 -4 0 3 11 16 25 29 31 15 33 -19 3 l-26 -23 19 23
c18 21 13 28 -17 23 -5 -1 -6 3 -2 9 4 6 12 7 24 1 19 -11 66 13 56 29 -3 4 3
14 13 21 15 13 16 12 3 -3 -7 -10 -10 -18 -6 -18 4 0 2 -7 -5 -15 -26 -31 7
-13 67 36 35 28 61 55 58 59 -3 5 -1 11 4 15 6 3 8 12 4 20 -3 8 0 15 7 15 6
0 8 -4 5 -10z m-34 -23 c-6 -8 -9 -16 -6 -19 3 -3 -3 -11 -12 -19 -16 -13 -17
-12 -4 4 7 9 10 17 6 17 -4 0 -2 7 5 15 7 8 15 15 17 15 3 0 0 -6 -6 -13z
m219 -27 c1 14 2 29 1 33 -1 5 3 6 9 2 6 -3 8 -10 6 -13 -2 -4 -7 -39 -11 -77
-3 -39 -8 -77 -10 -85 -2 -8 -7 -49 -10 -90 -7 -79 -19 -118 -29 -90 -10 32
-15 104 -5 89 5 -7 9 -27 9 -43 0 -16 3 -27 6 -23 6 6 -13 205 -23 242 -3 11
-2 17 3 12 4 -4 13 -44 20 -90 6 -45 12 -68 12 -52 0 17 -3 55 -7 85 -6 37 -5
57 3 62 6 4 10 24 9 45 l-1 38 8 -35 c6 -30 8 -31 10 -10z m-32 5 c-3 -3 -9 2
-12 12 -6 14 -5 15 5 6 7 -7 10 -15 7 -18z m288 -7 c4 -6 3 -8 -3 -5 -6 4 -13
1 -16 -7 -6 -16 21 -59 33 -51 4 3 24 -17 45 -43 l37 -47 -41 45 c-23 25 -41
40 -41 35 0 -6 3 -15 8 -21 4 -5 -8 7 -26 26 -38 41 -65 83 -40 62 13 -10 17
-10 22 3 7 18 12 19 22 3z m-519 -13 c0 -8 -12 -25 -26 -37 l-26 -23 19 23
c14 16 15 22 6 22 -9 0 -7 5 6 15 10 8 19 15 20 15 0 0 1 -7 1 -15z m190 -37
c-3 -7 -5 -2 -5 12 0 14 2 19 5 13 2 -7 2 -19 0 -25z m-30 -30 c-3 -8 -6 -5
-6 6 -1 11 2 17 5 13 3 -3 4 -12 1 -19z m393 -44 c0 6 13 -2 28 -17 16 -15 31
-25 34 -22 3 3 19 -11 35 -32 44 -57 47 -63 22 -58 -15 3 -19 0 -15 -11 3 -9
2 -12 -4 -9 -6 4 -9 14 -8 23 2 11 -4 17 -20 17 -25 0 -90 57 -73 63 6 2 9 8
6 12 -3 5 -12 7 -20 3 -9 -3 -16 1 -17 8 0 8 -2 19 -3 24 -2 6 -3 15 -4 20 -1
6 -6 3 -12 -5 -9 -12 -10 -12 -5 4 4 10 1 26 -5 35 -7 9 4 -2 24 -24 20 -22
36 -36 37 -31z m-373 4 c-2 -13 -4 -5 -4 17 -1 22 1 32 4 23 2 -10 2 -28 0
-40z m-40 0 c-3 -7 -5 -2 -5 12 0 14 2 19 5 13 2 -7 2 -19 0 -25z m7 -34 c3
-8 2 -12 -4 -9 -6 3 -10 1 -10 -6 0 -7 -3 -10 -6 -6 -7 6 2 37 10 37 2 0 7 -7
10 -16z m-314 -9 c-15 -18 0 -20 20 -2 12 10 12 9 2 -4 -6 -9 -8 -20 -4 -24 4
-5 1 -5 -6 -1 -8 5 -22 0 -35 -11 -12 -11 -29 -24 -37 -28 -8 -4 1 6 20 23 19
17 31 31 26 32 -9 0 12 30 21 30 3 0 0 -7 -7 -15z m368 -2 c-13 -16 -22 -17
-12 -1 5 8 2 9 -10 5 -9 -4 -15 -3 -11 2 3 6 14 9 25 8 14 -1 16 -4 8 -14z
m-404 -12 c3 -5 -2 -15 -12 -22 -15 -12 -16 -12 -5 2 7 9 10 19 6 22 -3 4 -4
7 0 7 3 0 8 -4 11 -9z m373 -38 c-3 -10 -5 -4 -5 12 0 17 2 24 5 18 2 -7 2
-21 0 -30z m-24 -25 c18 -11 37 3 38 31 2 26 2 26 6 2 3 -16 -1 -29 -12 -38
-26 -18 -55 1 -54 35 2 27 2 27 6 2 3 -14 10 -28 16 -32z m-413 -4 c-8 -8 -23
-20 -34 -25 -13 -7 -9 -1 9 15 34 29 43 33 25 10z m447 -46 c-3 -7 -5 -2 -5
12 0 14 2 19 5 13 2 -7 2 -19 0 -25z m-20 -15 c-3 -10 -5 -4 -5 12 0 17 2 24
5 18 2 -7 2 -21 0 -30z m539 15 c12 -14 13 -18 3 -10 -9 6 -18 10 -21 7 -2 -3
-5 2 -5 10 0 19 0 19 23 -7z m-499 -20 c-3 -7 -5 -2 -5 12 0 14 2 19 5 13 2
-7 2 -19 0 -25z m544 -5 c13 -16 12 -17 -3 -4 -17 13 -22 21 -14 21 2 0 10 -8
17 -17z m-566 -12 c-3 -6 -11 -11 -16 -11 -5 0 -4 6 3 14 14 16 24 13 13 -3z
m556 -8 c13 -16 12 -17 -3 -4 -17 13 -22 21 -14 21 2 0 10 -8 17 -17z m-528 0
c-7 -2 -13 -14 -14 -26 0 -12 -3 -16 -6 -9 -7 18 4 42 19 41 10 0 10 -2 1 -6z
m24 -35 c-3 -7 -5 -2 -5 12 0 14 2 19 5 13 2 -7 2 -19 0 -25z m-20 -15 c-3
-10 -5 -4 -5 12 0 17 2 24 5 18 2 -7 2 -21 0 -30z m-40 -20 c-3 -10 -5 -4 -5
12 0 17 2 24 5 18 2 -7 2 -21 0 -30z m39 -11 c5 1 9 -10 10 -27 1 -27 0 -27
-3 -3 -3 18 -9 25 -19 21 -9 -3 -14 1 -14 13 0 14 2 16 9 6 4 -8 12 -12 17
-10z m-33 -31 c-4 -3 -11 -10 -15 -15 -4 -4 -6 1 -5 12 1 12 6 18 15 15 7 -3
10 -9 5 -12z m4 -33 c-3 -8 -6 -5 -6 6 -1 11 2 17 5 13 3 -3 4 -12 1 -19z m34
-53 c-4 -17 -6 -15 -12 10 -12 53 -9 73 5 40 7 -16 10 -39 7 -50z m-54 18 c-3
-10 -5 -4 -5 12 0 17 2 24 5 18 2 -7 2 -21 0 -30z m30 -35 c-3 -7 -5 -2 -5 12
0 14 2 19 5 13 2 -7 2 -19 0 -25z m18 -35 c-5 -10 -7 -25 -6 -33 2 -8 0 -12
-3 -9 -4 4 -9 19 -12 35 -3 22 -2 25 6 14 8 -13 10 -12 10 4 0 11 3 17 6 13 4
-3 3 -14 -1 -24z m-5 -63 c0 -5 -5 -12 -11 -16 -6 -3 -9 -22 -7 -40 2 -20 0
-34 -7 -34 -6 0 -9 21 -7 54 3 42 7 53 18 49 8 -3 14 -9 14 -13z m-18 -127
c-5 -24 -6 -25 -12 -8 -6 16 2 33 16 35 1 0 -1 -12 -4 -27z m-31 -240 c13 -15
12 -15 -6 -6 -11 6 -26 8 -34 5 -8 -3 -11 0 -7 7 10 16 31 14 47 -6z m-76
-134 c4 -6 17 -14 29 -19 l21 -9 -22 0 c-31 -1 -53 9 -53 25 0 17 16 19 25 3z"/>
<path d="M1330 2614 c1 -13 29 -48 34 -43 2 2 -4 15 -15 28 -10 13 -19 19 -19
15z"/>
<path d="M1396 2530 c9 -19 61 -87 92 -120 12 -14 33 -40 45 -57 21 -31 47
-48 31 -20 -4 6 5 1 19 -12 15 -14 27 -29 27 -35 0 -6 -9 0 -20 14 -11 14 -20
21 -20 16 0 -5 30 -45 66 -90 36 -44 71 -88 77 -96 64 -80 89 -107 102 -107
20 0 19 3 -11 42 -14 19 -23 39 -19 45 4 6 -12 34 -35 61 -37 45 -40 51 -26
65 18 17 21 28 6 19 -5 -3 -21 8 -36 25 -15 16 -30 28 -32 25 -3 -3 8 -19 24
-36 23 -24 26 -32 14 -39 -8 -5 -18 -6 -22 -4 -4 3 -8 0 -8 -6 0 -6 -5 -8 -11
-4 -8 4 -7 9 2 15 7 4 17 5 22 2 5 -3 7 0 5 8 -3 8 -11 13 -18 11 -7 -2 -17 3
-22 10 -6 9 -7 5 -3 -9 8 -30 1 -29 -19 2 -15 23 -15 24 1 18 15 -6 -69 111
-89 123 -14 9 -9 -9 9 -28 9 -10 14 -21 11 -24 -3 -3 -16 11 -28 30 -12 20
-26 36 -31 36 -5 0 -9 5 -9 12 0 6 8 4 19 -6 12 -11 20 -13 23 -6 2 6 32 -25
67 -70 35 -44 66 -79 68 -76 5 5 -73 107 -124 163 -18 20 -33 32 -33 26 0 -5
3 -13 8 -19 4 -5 -8 6 -25 26 -20 22 -33 29 -33 20 0 -9 -15 1 -36 25 -19 22
-32 33 -28 25z m85 -82 c11 -21 11 -22 -4 -9 -10 7 -17 17 -17 22 0 15 9 10
21 -13z m275 -302 c15 -19 20 -32 13 -36 -6 -5 -1 -18 15 -37 14 -17 26 -35
26 -39 0 -5 -10 5 -22 20 -22 28 -75 93 -104 129 -16 20 -18 31 -4 22 6 -3 10
0 10 7 1 7 10 2 21 -12 12 -14 32 -38 45 -54z"/>
<path d="M1705 2175 c23 -36 55 -72 55 -59 -1 5 -17 27 -37 49 -28 32 -32 34
-18 10z"/>
<path d="M1862 1965 c-114 -58 -157 -173 -108 -289 18 -42 64 -90 106 -112 48
-24 154 -24 199 0 153 82 164 287 21 385 -69 47 -144 53 -218 16z m73 -15
c-10 -11 -13 -20 -8 -20 6 0 16 7 23 15 7 8 17 15 22 15 5 0 -4 -11 -19 -24
-15 -14 -30 -20 -31 -15 -2 5 -8 7 -13 3 -18 -11 -8 8 14 27 29 24 35 24 12
-1z m153 -66 c3 3 -3 16 -14 28 -19 23 -19 23 2 5 11 -9 24 -14 29 -10 4 5 2
-3 -5 -15 -10 -21 -8 -29 21 -65 46 -59 56 -77 25 -43 -34 36 -44 29 -14 -10
l22 -29 -29 25 c-23 21 -27 22 -21 6 5 -16 4 -17 -9 -6 -12 10 -15 10 -15 0 0
-9 -3 -10 -13 -1 -8 6 -17 8 -20 4 -4 -3 -13 0 -22 7 -12 10 -15 10 -15 0 0
-10 -3 -10 -15 0 -8 7 -15 17 -15 22 0 6 7 5 15 -2 8 -7 15 -8 15 -2 0 5 -7
15 -15 22 -8 7 -15 18 -15 24 0 6 7 3 14 -6 19 -26 29 -22 14 5 -11 19 -19 67
-12 67 2 0 24 -27 50 -60 39 -50 49 -58 57 -45 5 9 6 19 3 22 -3 4 -6 1 -6 -6
0 -7 -5 -9 -11 -5 -8 5 -8 8 0 14 8 5 0 23 -27 56 -53 68 -63 88 -17 36 20
-24 40 -41 43 -38z m-201 47 c-2 -10 -9 -26 -16 -35 -18 -21 -3 -21 21 1 10 9
18 11 18 6 0 -20 33 -24 54 -6 16 14 15 11 -3 -10 -25 -27 -18 -38 9 -14 8 6
4 -1 -10 -17 -22 -25 -22 -28 -6 -22 20 7 20 7 0 -15 -17 -20 -17 -22 -1 -16
25 9 21 2 -10 -19 -24 -15 -26 -15 -14 -1 8 10 9 17 3 17 -6 0 -13 -4 -16 -9
-3 -5 -17 -8 -32 -8 -25 0 -25 1 17 38 54 47 44 52 -13 7 -40 -33 -99 -49 -76
-20 9 10 13 11 19 0 8 -12 10 -11 13 12 0 5 17 23 36 39 59 51 19 34 -48 -19
-34 -28 -62 -48 -62 -44 0 4 8 13 18 21 16 14 16 14 -3 9 -15 -5 -13 0 9 18
16 14 31 32 32 42 2 10 10 21 19 26 8 5 13 13 10 19 -3 5 1 6 9 3 9 -3 16 -1
16 5 0 6 2 11 5 11 3 0 4 -9 2 -19z m93 6 c0 -2 -10 -12 -22 -23 l-23 -19 19
23 c18 21 26 27 26 19z m63 -47 c50 -65 42 -64 -12 0 -23 28 -39 50 -34 50 4
-1 25 -23 46 -50z m107 -60 c30 -43 18 -37 -16 7 -15 20 -23 33 -16 29 6 -3
21 -20 32 -36z m-281 -125 c7 3 20 0 27 -6 22 -18 16 2 -7 27 -13 14 -27 20
-37 16 -14 -5 -15 -4 -2 10 14 15 17 15 34 0 18 -16 19 -16 12 2 -5 15 -4 17
7 8 8 -7 16 -10 19 -7 3 3 13 -5 24 -17 10 -12 13 -18 5 -13 -10 6 -12 2 -6
-15 5 -15 4 -20 -4 -16 -15 10 -14 -7 2 -24 7 -9 4 -8 -8 1 -11 9 -26 14 -32
12 -7 -3 -13 1 -13 7 0 6 -8 9 -18 6 -12 -4 -26 5 -45 29 -15 18 -27 37 -27
41 0 4 12 -9 28 -29 15 -21 33 -34 41 -32z m-75 39 c3 -8 2 -12 -4 -9 -6 3
-10 10 -10 16 0 14 7 11 14 -7z m225 -7 c-2 -1 -15 -11 -29 -22 l-25 -20 19
23 c11 12 24 22 29 22 6 0 8 -1 6 -3z m71 -1 c0 -2 -8 -10 -17 -17 -16 -13
-17 -12 -4 4 13 16 21 21 21 13z m-270 -71 c14 -19 14 -19 -2 -6 -10 7 -18 18
-18 24 0 6 1 8 3 6 1 -2 9 -13 17 -24z m117 -46 c-1 -16 -3 -29 -3 -29 -1 0
-10 12 -20 28 -15 23 -15 25 -1 13 20 -16 22 -8 5 22 -10 20 -10 21 5 9 9 -8
15 -26 14 -43z m-62 21 c10 -11 16 -20 13 -20 -3 0 -13 9 -23 20 -10 11 -16
20 -13 20 3 0 13 -9 23 -20z m165 16 c0 -2 -8 -10 -17 -17 -16 -13 -17 -12 -4
4 13 16 21 21 21 13z m-112 -87 c3 -12 2 -12 -6 0 -6 8 -15 10 -22 6 -9 -5
-11 -4 -6 4 10 15 28 10 34 -10z"/>
<path d="M2000 1872 c0 -7 7 -15 16 -19 10 -4 14 -13 10 -28 -4 -14 0 -28 9
-35 18 -15 20 1 3 18 -9 9 -9 12 -1 12 7 0 15 -9 18 -20 3 -11 11 -20 16 -20
13 0 -2 26 -40 70 -17 19 -30 29 -31 22z"/>
<path d="M1845 1900 c-10 -11 -14 -20 -10 -20 5 0 -2 -12 -16 -26 -21 -24 -22
-26 -3 -16 29 15 51 42 34 42 -7 0 -2 9 11 20 13 10 19 19 13 20 -6 0 -19 -9
-29 -20z"/>
<path d="M1880 1850 c-19 -17 -30 -30 -25 -30 6 0 26 14 45 30 19 16 31 29 25
29 -5 0 -26 -13 -45 -29z"/>
<path d="M1906 1809 c-11 -10 -15 -19 -9 -19 5 0 18 9 28 20 23 26 6 25 -19
-1z"/>
<path d="M1900 1732 c0 -5 7 -15 15 -22 8 -7 15 -8 15 -2 0 5 -7 15 -15 22 -8
7 -15 8 -15 2z"/>
<path d="M1476 2244 c-6 -17 22 -59 32 -49 3 3 19 -7 35 -22 17 -16 26 -21 22
-13 -14 26 -48 60 -55 55 -4 -3 -14 3 -21 13 -13 15 -12 16 4 3 20 -16 24 1 3
18 -11 9 -15 8 -20 -5z"/>
<path d="M1540 2114 c1 -5 16 -27 35 -48 19 -22 35 -35 35 -30 -1 5 -16 27
-35 48 -19 22 -35 35 -35 30z"/>
<path d="M2465 2070 c-3 -5 -2 -10 4 -10 5 0 13 5 16 10 3 6 2 10 -4 10 -5 0
-13 -4 -16 -10z"/>
<path d="M1134 1908 c-3 -4 -21 -8 -41 -8 -20 0 -34 -2 -32 -4 7 -7 387 -48
406 -44 10 3 -21 8 -69 12 -56 6 -85 12 -81 19 3 6 1 7 -6 3 -6 -4 -51 -4 -99
0 -83 8 -85 9 -37 14 l50 6 -43 5 c-24 2 -46 1 -48 -3z"/>
<path d="M1530 1846 c0 -2 9 -6 20 -9 11 -3 20 -1 20 4 0 5 -9 9 -20 9 -11 0
-20 -2 -20 -4z"/>
<path d="M2312 1783 c6 -7 22 -12 37 -12 25 1 25 2 -4 9 l-30 7 35 5 c33 5 33
5 -7 5 -34 -1 -40 -4 -31 -14z"/>
<path d="M2600 1726 c0 -2 18 -6 39 -8 22 -2 37 0 35 4 -5 8 -74 11 -74 4z"/>
<path d="M1705 1600 c-4 -6 -14 -9 -22 -5 -21 7 -90 -45 -73 -55 8 -5 8 -10 2
-14 -5 -3 -13 2 -16 11 -5 11 2 24 21 39 15 13 24 23 20 24 -5 0 -27 -16 -50
-35 -23 -20 -47 -33 -55 -30 -17 6 -85 -47 -71 -56 6 -3 -23 -33 -65 -65 -41
-32 -73 -65 -71 -71 2 -7 -6 -19 -17 -27 -12 -9 -19 -19 -15 -23 4 -4 20 5 35
20 15 15 21 27 14 27 -8 0 0 11 16 25 31 26 48 33 37 15 -3 -5 0 -10 7 -10 8
-1 5 -7 -7 -16 -11 -8 -27 -20 -35 -27 -8 -7 -61 -50 -117 -95 -57 -46 -103
-85 -103 -87 0 -10 9 -4 47 28 22 17 57 46 78 62 21 17 57 46 80 65 42 35 99
80 117 91 6 4 8 11 4 17 -3 6 4 18 16 26 12 9 19 19 15 22 -9 9 -58 -36 -52
-46 3 -4 -4 -15 -14 -24 -16 -14 -19 -15 -24 -2 -6 15 11 32 110 109 65 50 93
64 46 22 -15 -13 -23 -25 -17 -25 6 0 17 7 24 15 7 8 17 15 23 15 5 0 -2 -9
-16 -20 -14 -11 -32 -18 -40 -15 -7 3 -20 -1 -27 -10 -15 -18 0 -21 18 -3 9 9
12 9 12 0 0 -7 -3 -12 -7 -12 -12 -1 -69 -50 -58 -50 9 0 45 27 130 98 16 13
91 72 114 89 2 2 2 6 -1 9 -3 3 -9 0 -13 -6z m-35 -26 c-8 -8 -23 -20 -34 -25
-13 -6 -10 0 9 15 34 29 43 33 25 10z m-160 -69 c-13 -14 -28 -25 -34 -25 -6
0 3 11 19 25 39 31 45 32 15 0z"/>
<path d="M1415 1400 c-3 -5 -2 -10 4 -10 5 0 13 5 16 10 3 6 2 10 -4 10 -5 0
-13 -4 -16 -10z"/>
<path d="M1360 1355 c-7 -8 -8 -15 -2 -15 5 0 15 7 22 15 7 8 8 15 2 15 -5 0
-15 -7 -22 -15z"/>
<path d="M2187 1556 c-3 -8 6 -30 21 -50 32 -41 52 -49 24 -8 -10 15 -17 32
-15 38 2 6 -3 16 -10 23 -12 9 -16 8 -20 -3z"/>
<path d="M2240 1502 c0 -6 5 -14 10 -17 6 -4 8 -11 4 -16 -8 -13 58 -100 72
-95 13 5 34 -13 34 -28 0 -5 -7 -1 -16 10 -8 10 -14 14 -12 7 5 -18 242 -322
252 -323 4 0 -4 16 -18 35 -15 19 -24 40 -21 46 4 6 -11 31 -32 57 -49 59 -64
84 -35 58 37 -32 25 -7 -28 59 -50 62 -64 89 -35 65 26 -22 16 2 -20 46 -24
29 -33 48 -28 60 5 13 3 16 -10 11 -9 -3 -19 -1 -23 5 -4 7 -9 6 -15 -3 -7
-11 -11 -10 -23 6 -11 14 -15 16 -16 6 0 -11 -5 -10 -20 4 -11 10 -20 13 -20
7z m110 -88 c0 5 -7 18 -17 28 -9 10 -14 20 -11 23 3 3 22 -15 43 -40 20 -25
35 -49 31 -52 -3 -3 -14 5 -25 18 -11 13 -20 19 -21 12 0 -6 3 -13 8 -15 18
-8 103 -129 97 -139 -4 -6 11 -31 32 -57 47 -57 66 -89 26 -46 -15 17 -35 40
-43 50 -8 10 -30 38 -48 61 -17 22 -31 47 -29 55 2 7 2 10 0 6 -7 -13 -20 -9
-26 6 -4 11 -1 13 10 9 13 -5 12 0 -5 25 -27 37 -42 48 -42 31 0 -8 -8 -5 -18
7 -27 29 -59 79 -44 71 7 -5 12 -3 12 5 0 7 16 -5 35 -27 19 -22 34 -36 35
-31z"/>
<path d="M2280 1454 c0 -6 11 -21 25 -34 14 -13 25 -20 25 -16 0 4 -11 19 -25
34 -14 15 -25 22 -25 16z"/>
<path d="M2417 1280 c9 -16 21 -30 25 -30 4 0 -1 13 -10 30 -9 16 -21 30 -25
30 -5 0 0 -13 10 -30z"/>
<path d="M1715 1470 c-3 -5 -2 -10 4 -10 5 0 13 5 16 10 3 6 2 10 -4 10 -5 0
-13 -4 -16 -10z"/>
<path d="M1611 1359 c-13 -11 -31 -17 -40 -14 -8 3 -12 3 -8 -1 4 -4 -3 -18
-15 -31 -37 -39 -6 -25 47 22 50 44 62 62 16 24z"/>
<path d="M1893 1408 c-5 -7 -6 -31 -3 -53 l6 -40 5 53 c2 28 3 52 3 52 -1 0
-6 -6 -11 -12z"/>
<path d="M2170 1321 c0 -5 5 -13 10 -16 6 -3 10 -2 10 4 0 5 -4 13 -10 16 -5
3 -10 2 -10 -4z"/>
<path d="M2207 1305 c6 -11 9 -25 6 -31 -4 -13 32 -47 53 -50 11 -2 14 3 9 14
-3 9 6 4 19 -13 34 -40 33 -23 -1 21 -26 35 -27 35 -39 13 l-11 -22 -13 24
c-12 22 -12 23 3 10 28 -22 19 4 -9 30 -23 20 -25 21 -17 4z"/>
<path d="M2562 2320 c-11 -11 -27 -18 -34 -15 -7 3 -36 -13 -63 -36 -28 -23
-59 -47 -69 -55 -11 -7 -17 -16 -14 -19 3 -3 32 16 64 43 67 55 91 71 80 54
-13 -21 8 -12 44 18 19 16 30 30 24 30 -5 0 -20 -9 -32 -20z"/>
<path d="M2472 2249 c-19 -17 -31 -33 -27 -37 4 -4 10 -1 12 6 3 6 9 12 15 12
6 0 5 -6 -2 -15 -7 -9 -20 -13 -28 -10 -8 3 -21 0 -28 -6 -8 -7 -23 -12 -33
-13 -17 -1 -56 -29 -121 -86 l-25 -22 27 16 c15 9 33 14 40 11 7 -2 27 7 43
20 23 19 27 27 17 34 -11 7 -10 9 3 14 9 4 13 3 10 -3 -10 -16 5 -11 32 10 15
11 29 18 32 15 5 -6 -12 -20 -34 -28 -5 -3 -7 -8 -3 -12 6 -6 70 41 133 99 20
18 20 18 -4 11 -16 -5 -21 -4 -17 4 13 21 -9 10 -42 -20z m28 -9 c-8 -5 -17
-7 -19 -4 -3 3 1 9 9 14 8 5 17 7 19 4 3 -3 -1 -9 -9 -14z m-150 -89 c0 -5
-12 -17 -27 -26 l-28 -18 24 27 c26 28 31 31 31 17z"/>
<path d="M2224 2128 l-19 -21 28 18 c28 18 33 25 19 25 -5 0 -17 -10 -28 -22z"/>
<path d="M2179 2010 c-13 -10 -19 -19 -13 -20 6 0 19 9 29 20 23 26 14 26 -16
0z"/>
</g>
</svg>
