<svg xmlns="http://www.w3.org/2000/svg" viewBox="0 0 1366 768"><style>.st1{fill:#c1c1c1;stroke:#000;stroke-miterlimit:10}</style><g id="rose_x5F_vent"><path id="br_x5F_vertical_x5F_haut" class="st1" d="M703.29 215.31s.62-.12.25 1.24c0 0-.24.27-.43.14-.19-.14-.19.48.06.85 0 0 .37.12.25.49s-.41.37-.41.37-.7-.37-.82 0-.12.62.25.99c0 0 .99.49 1.36-.12 0 0 .37-.12.12.37l-.8.77.8 1.08-.25.12.17.61-4.42 12.43 4.16 7.93a4.886 4.886 0 011.06 0l4.16-7.85-4.46-12.52h.02l.17-.61-.25-.12.8-1.08-.8-.77c-.25-.49.12-.37.12-.37.37.62 1.36.12 1.36.12.37-.37.37-.62.25-.99s-.82 0-.82 0-.29 0-.41-.37.25-.49.25-.49c.25-.37.25-.99.06-.85s-.43-.14-.43-.14c-.37-1.36.25-1.24.25-1.24.99 1.48 1.36.37 1.36.37.25-2.35-1.98-1.11-1.98-1.11v-.74l1.11-1.48-1.3-5.38v.02l-1.29 5.37 1.11 1.48v.74s-2.22-1.24-1.98 1.11c-.01 0 .36 1.11 1.35-.37z"/><path id="br_x5F_droite_x5F_1" class="st1" d="M707.47 243.77c.27.22.52.48.75.75l8.49-2.6 6.03-12.69-12.6 6-2.67 8.54z"/><circle id="centre" class="st1" cx="704.09" cy="247.87" r="4.7"/><path id="br_x5F_horizontal_x5F_gauche" class="st1" d="M698.8 248.39a4.886 4.886 0 010-1.06l-7.89-4.18-13.68 4.37a.98.98 0 00-1.47-.68l-2.26.85 2.26.85c.15.09.32.14.5.14.48 0 .89-.35.97-.81l13.63 4.69 7.94-4.17z"/><path id="br_x5F_gauche_x5F_1" class="st1" d="M699.99 244.5c.22-.27.48-.52.75-.75l-2.6-8.49-12.69-6.03 6 12.6 8.54 2.67z"/><path id="br_x5F_gauche_x5F_2" class="st1" d="M700.72 251.98c-.27-.22-.52-.48-.75-.75l-8.49 2.6-6.03 12.69 12.6-6 2.67-8.54z"/><path id="br_x5F_droite_x5F_2" class="st1" d="M708.2 251.25c-.22.27-.48.52-.75.75l2.6 8.49 12.69 6.03-6-12.6-8.54-2.67z"/><path id="br_x5F_horizontal_x5F_droite" class="st1" d="M732.22 246.96a.966.966 0 00-.5-.14c-.45 0-.83.3-.95.72l-13.42-4.37-7.96 4.18a4.886 4.886 0 010 1.06l7.87 4.18 13.52-4.5c.12.41.5.71.95.71.18 0 .35-.05.5-.14l2.26-.85-2.27-.85z"/><path id="br_x5F_vert_x5F_bas" class="st1" d="M706.01 277.72c-.87.99-1.11.49-1.11.49-.62-.62-.25-.62-.25-.62.37.12.74-.99.49-.99s-.49-.37-.49-.37c.12-.37.25-.25.43-.14s.43.01.43.01c.25.12.37-.04.37-.04v-.58c-.12-.87-.8-.67-.8-.67s-.06-.07-.31.06-.12-.12-.12-.12c.12-.12 0-.25 0-.25-.12-.25-.39-.15-.39-.15v-.55l4.51-12.71-4.16-7.93a4.886 4.886 0 01-1.06 0l-4.16 7.85 4.53 12.73v.62s-.27-.09-.39.15c0 0-.12.12 0 .25 0 0 .12.25-.12.12s-.31-.06-.31-.06-.68-.19-.8.67v.58s.12.16.37.04c0 0 .25.1.43-.01s.31-.23.43.14c0 0-.25.37-.49.37-.25 0 .12 1.11.49.99 0 0 .37 0-.25.62 0 0-.25.49-1.11-.49 0 0-1.61.87-.12 1.98 0 0 .99.49 1.73-.12l-.49 1.11.49.62v.37l.31.32.31-.32v-.37l.49-.62-.49-1.11c.74.62 1.73.12 1.73.12 1.48-1.12-.12-1.99-.12-1.99z"/><g id="rose_x5F_avant"><path d="M705.08 252.98c.7-.13 1.34-.41 1.91-.79l3.26 10.63-5.17-9.84zm-3.9-.8c.57.38 1.21.66 1.91.8l-5.21 9.82 3.3-10.62zm7.21-1.39c.38-.57.66-1.21.8-1.91l9.82 5.21-10.62-3.3zm-9.4-1.93c.13.7.41 1.34.79 1.91l-10.63 3.26 9.84-5.17zm10.21-1.97c-.13-.7-.41-1.34-.79-1.91l10.63-3.26-9.84 5.17zm-20.03-5.23l10.62 3.31c-.38.57-.66 1.21-.8 1.91l-9.82-5.22zm17.83 1.91c-.57-.38-1.21-.66-1.91-.8l5.21-9.82-3.3 10.62zm-9.06-10.64l5.17 9.85c-.7.13-1.34.41-1.91.79l-3.26-10.64z" fill="#e0e0e0"/><path d="M699.99 237.9l2.38 4.54c-.31.1-.6.22-.88.36l-1.5-4.9m8.25.02l-1.52 4.9c-.28-.15-.57-.27-.88-.37l2.4-4.53m-14.1 5.81l4.9 1.52c-.15.28-.27.57-.37.88l-4.53-2.4m19.92.04l-4.54 2.38c-.1-.31-.22-.6-.36-.88l4.9-1.5m-15.4 5.83c.1.31.22.6.36.88l-4.9 1.5 4.54-2.38m10.86.02l4.53 2.4-4.9-1.52c.14-.28.27-.58.37-.88m-8.05 3.31c.28.15.57.27.88.37l-2.4 4.53 1.52-4.9m5.22.01l1.5 4.9-2.38-4.54c.31-.09.6-.21.88-.36m-10.8-24.99l4.85 15.81c-.27.22-.53.47-.75.75l-15.79-4.91 14.61 7.75a4.886 4.886 0 000 1.06l-14.64 7.69 15.81-4.85c.22.27.47.52.75.75l-4.91 15.79 7.75-14.61a4.886 4.886 0 001.06 0l7.69 14.64-4.85-15.81c.27-.22.53-.47.75-.75l15.79 4.91-14.61-7.75a4.886 4.886 0 000-1.06l14.64-7.69-15.81 4.85c-.22-.27-.47-.52-.75-.75l4.91-15.79-7.75 14.61a4.886 4.886 0 00-1.06 0l-7.69-14.64zm8.2 24.62a4.7 4.7 0 11.002-9.402 4.7 4.7 0 01-.002 9.402z"/></g></g></svg>